<svg width="30" height="30" viewBox="0 0 30 30" fill="none" xmlns="http://www.w3.org/2000/svg">
    <path d="M22.5 0H18.93L18.495 0.69C18.1232 1.27868 17.6083 1.76365 16.9985 2.09972C16.3887 2.4358 15.7038 2.61205 15.0075 2.61205C14.3112 2.61205 13.6263 2.4358 13.0165 2.09972C12.4067 1.76365 11.8918 1.27868 11.52 0.69L11.07 0H7.5C5.51088 0 3.60322 0.790176 2.1967 2.1967C0.790176 3.60322 0 5.51088 0 7.5V15H6V30H24V15H30V7.5C30 5.51088 29.2098 3.60322 27.8033 2.1967C26.3968 0.790176 24.4891 0 22.5 0ZM27 12H24V7.5H21V27H9V7.5H6V12H3V7.5C3 6.30653 3.47411 5.16193 4.31802 4.31802C5.16193 3.47411 6.30653 3 7.5 3H9.48C10.1482 3.81875 10.9902 4.4786 11.9449 4.93174C12.8996 5.38489 13.9432 5.61998 15 5.61998C16.0568 5.61998 17.1004 5.38489 18.0551 4.93174C19.0098 4.4786 19.8518 3.81875 20.52 3H22.5C23.6935 3 24.8381 3.47411 25.682 4.31802C26.5259 5.16193 27 6.30653 27 7.5V12Z" fill="#ED1C24"/>
</svg>
