<svg width="33" height="40" viewBox="0 0 33 40" fill="none" xmlns="http://www.w3.org/2000/svg">
    <path d="M30.2808 10.4959C31.095 10.4959 31.9092 9.81746 32.1806 8.59621L32.5876 7.23927C32.7233 6.83218 32.3162 6.4251 31.9092 6.4251H29.7381C29.1953 3.30412 26.4814 0.997314 23.089 0.997314C21.325 0.997314 19.561 1.67579 18.204 3.03273C16.9828 4.38968 16.3043 6.01802 16.3043 7.78205C16.3043 9.0033 16.3043 10.3602 16.9828 11.5815C16.44 13.2098 13.5904 14.5668 10.8765 14.5668C8.02691 14.5668 4.63455 12.3957 4.09177 10.0889C3.82038 9.54608 3.4133 9.27469 2.87052 9.13899C2.32774 9.13899 1.78496 9.27469 1.51357 9.81746C0.699405 11.3101 0.0209324 13.8883 0.0209324 15.9237C0.0209324 21.8943 3.82038 25.4223 11.2836 26.5079C11.0122 26.915 10.8765 27.5935 10.8765 28.1362C10.8765 29.2218 11.4193 30.1717 12.2334 30.8501C11.4193 31.5286 10.8765 32.4785 10.8765 33.564C10.8765 34.1068 11.0122 34.6496 11.2836 35.0567C7.89122 35.1924 4.49885 35.5994 1.10649 36.2779C0.428016 36.4136 -0.114762 37.0921 0.0209324 37.9063C0.156627 38.5847 0.8351 39.1275 1.64927 38.9918C11.4193 37.2278 21.325 37.2278 30.9593 38.9918C31.095 38.9918 31.095 38.9918 31.2307 38.9918C31.9092 38.9918 32.4519 38.5847 32.5876 37.9063C32.7233 37.2278 32.1806 36.4136 31.5021 36.2779C28.1097 35.5994 24.7174 35.3281 21.325 35.0567C21.5964 34.6496 21.7321 34.1068 21.7321 33.564C21.7321 32.4785 21.1893 31.5286 20.3751 30.8501C21.1893 30.1717 21.7321 29.2218 21.7321 28.1362C21.7321 27.4578 21.4607 26.915 21.1893 26.3722C24.446 25.6937 26.8885 24.3368 28.3811 22.3014C29.4667 20.8087 30.0094 19.0447 29.8737 17.145C29.8737 15.3809 29.331 13.8883 28.3811 12.5314C28.7882 11.9886 29.1953 11.3101 29.4667 10.6316H30.2808V10.4959ZM19.0182 33.564C19.0182 34.1068 17.9326 34.921 16.3043 34.921C14.676 34.921 13.5904 34.1068 13.5904 33.564C13.5904 33.0212 14.676 32.2071 16.3043 32.2071C17.9326 32.2071 19.0182 33.0212 19.0182 33.564ZM19.0182 28.1362C19.0182 28.679 17.9326 29.4932 16.3043 29.4932C14.676 29.4932 13.5904 28.679 13.5904 28.1362C13.5904 27.5935 14.676 26.7793 16.3043 26.7793C17.9326 26.7793 19.0182 27.5935 19.0182 28.1362ZM25.5315 13.3455C26.6171 14.4311 27.1599 15.788 27.1599 17.145C27.1599 18.3662 26.8885 19.5875 26.0743 20.673C24.0389 23.5226 19.6966 24.0654 16.3043 24.0654C2.73482 24.0654 2.73482 17.9591 2.73482 15.9237C2.73482 15.2452 2.87052 14.4311 3.00621 13.6169C5.04163 15.9237 8.2983 17.2807 10.8765 17.2807C14.4046 17.2807 19.561 15.2452 19.8323 11.4458C19.8323 11.0387 19.6966 10.7673 19.561 10.4959C19.0182 9.95316 19.0182 8.73191 19.0182 7.78205C19.0182 6.69649 19.4253 5.74663 20.2394 4.93246C20.9179 4.11829 22.0035 3.71121 23.089 3.71121C25.3958 3.71121 27.1599 5.47524 27.1599 7.78205C27.1599 9.13899 26.6171 10.4959 25.6672 11.1744C25.3958 11.4458 25.1244 11.7172 25.1244 12.1243C25.1244 12.6671 25.2601 13.0741 25.5315 13.3455Z" fill="#ED1C24"/>
    <path d="M23.089 9.13899C23.8384 9.13899 24.446 8.53147 24.446 7.78205C24.446 7.03262 23.8384 6.4251 23.089 6.4251C22.3396 6.4251 21.7321 7.03262 21.7321 7.78205C21.7321 8.53147 22.3396 9.13899 23.089 9.13899Z" fill="#ED1C24"/>
</svg>
