<svg width="30" height="30" viewBox="0 0 30 30" fill="none" xmlns="http://www.w3.org/2000/svg">
    <path fill-rule="evenodd" clip-rule="evenodd" d="M24.918 21.7485C22.1813 19.3287 18.6531 17.9952 15 18C11.3469 17.9952 7.81867 19.3287 5.082 21.7485C3.72338 19.7604 2.99763 17.408 3 15C3 12.501 3.7695 10.1774 5.082 8.25293C7.81875 10.6724 11.3471 12.0055 15 12C18.6529 12.0055 22.1813 10.6724 24.918 8.25293C26.2764 10.2406 27.0022 12.5925 27 15C27.0024 17.408 26.2766 19.7604 24.918 21.7485ZM15 27C12.0797 27.0025 9.25954 25.9353 7.07249 24C9.25954 22.0647 12.0797 20.9975 15 21C18.036 21 20.8125 22.134 22.9275 24C20.7405 25.9353 17.9203 27.0025 15 27ZM15 3C18.036 3 20.8125 4.134 22.9275 6C20.7405 7.93526 17.9203 9.00247 15 9C12.0797 9.00247 9.25954 7.93526 7.07249 6C9.25954 4.06474 12.0797 2.99753 15 3ZM15 0C6.726 0 0 6.708 0 15C0 23.2785 6.711 30 15 30C23.283 30 30 23.283 30 15C30 6.735 23.3025 0 15 0Z" fill="#ED1C24"/>
</svg>
