<svg width="33" height="31" viewBox="0 0 33 31" fill="none" xmlns="http://www.w3.org/2000/svg">
    <path d="M16.5 15.0127C15.61 15.0127 14.74 15.2766 13.9999 15.7711C13.2599 16.2655 12.6831 16.9684 12.3425 17.7906C12.0019 18.6129 11.9128 19.5177 12.0865 20.3906C12.2601 21.2635 12.6887 22.0653 13.318 22.6947C13.9474 23.324 14.7492 23.7526 15.6221 23.9262C16.495 24.0999 17.3998 24.0107 18.2221 23.6702C19.0443 23.3296 19.7471 22.7528 20.2416 22.0128C20.7361 21.2727 21 20.4027 21 19.5127C21 18.3192 20.5259 17.1746 19.682 16.3307C18.8381 15.4868 17.6935 15.0127 16.5 15.0127ZM16.5 21.0127C16.2033 21.0127 15.9133 20.9247 15.6666 20.7599C15.42 20.5951 15.2277 20.3608 15.1142 20.0867C15.0006 19.8126 14.9709 19.511 15.0288 19.2201C15.0867 18.9291 15.2296 18.6618 15.4393 18.452C15.6491 18.2423 15.9164 18.0994 16.2074 18.0415C16.4983 17.9836 16.7999 18.0133 17.074 18.1269C17.3481 18.2404 17.5824 18.4327 17.7472 18.6793C17.912 18.926 18 19.216 18 19.5127C18 19.9105 17.842 20.2921 17.5607 20.5734C17.2794 20.8547 16.8978 21.0127 16.5 21.0127ZM15.435 11.5777C15.5777 11.7143 15.7459 11.8213 15.93 11.8927C16.1096 11.9721 16.3037 12.013 16.5 12.013C16.6963 12.013 16.8904 11.9721 17.07 11.8927C17.2541 11.8213 17.4223 11.7143 17.565 11.5777L21 8.2027C21.2904 7.91228 21.4536 7.5184 21.4536 7.1077C21.4536 6.69699 21.2904 6.30311 21 6.0127C20.7096 5.72228 20.3157 5.55913 19.905 5.55913C19.4943 5.55913 19.1004 5.72228 18.81 6.0127L18 6.8977V1.5127C18 1.11487 17.842 0.73334 17.5607 0.452035C17.2794 0.170731 16.8978 0.0126953 16.5 0.0126953C16.1022 0.0126953 15.7206 0.170731 15.4393 0.452035C15.158 0.73334 15 1.11487 15 1.5127V6.8977L14.19 6.0127C13.8996 5.72228 13.5057 5.55913 13.095 5.55913C12.6843 5.55913 12.2904 5.72228 12 6.0127C11.7096 6.30311 11.5464 6.69699 11.5464 7.1077C11.5464 7.5184 11.7096 7.91228 12 8.2027L15.435 11.5777ZM27 19.5127C27 19.216 26.912 18.926 26.7472 18.6793C26.5824 18.4327 26.3481 18.2404 26.074 18.1269C25.7999 18.0133 25.4983 17.9836 25.2074 18.0415C24.9164 18.0994 24.6491 18.2423 24.4393 18.452C24.2296 18.6618 24.0867 18.9291 24.0288 19.2201C23.9709 19.511 24.0006 19.8126 24.1142 20.0867C24.2277 20.3608 24.42 20.5951 24.6666 20.7599C24.9133 20.9247 25.2033 21.0127 25.5 21.0127C25.8978 21.0127 26.2794 20.8547 26.5607 20.5734C26.842 20.2921 27 19.9105 27 19.5127ZM28.5 9.0127H24C23.6022 9.0127 23.2206 9.17073 22.9393 9.45204C22.658 9.73334 22.5 10.1149 22.5 10.5127C22.5 10.9105 22.658 11.2921 22.9393 11.5734C23.2206 11.8547 23.6022 12.0127 24 12.0127H28.5C28.8978 12.0127 29.2794 12.1707 29.5607 12.452C29.842 12.7333 30 13.1149 30 13.5127V25.5127C30 25.9105 29.842 26.2921 29.5607 26.5734C29.2794 26.8547 28.8978 27.0127 28.5 27.0127H4.5C4.10218 27.0127 3.72064 26.8547 3.43934 26.5734C3.15804 26.2921 3 25.9105 3 25.5127V13.5127C3 13.1149 3.15804 12.7333 3.43934 12.452C3.72064 12.1707 4.10218 12.0127 4.5 12.0127H9C9.39782 12.0127 9.77936 11.8547 10.0607 11.5734C10.342 11.2921 10.5 10.9105 10.5 10.5127C10.5 10.1149 10.342 9.73334 10.0607 9.45204C9.77936 9.17073 9.39782 9.0127 9 9.0127H4.5C3.30653 9.0127 2.16193 9.4868 1.31802 10.3307C0.474106 11.1746 0 12.3192 0 13.5127V25.5127C0 26.7062 0.474106 27.8508 1.31802 28.6947C2.16193 29.5386 3.30653 30.0127 4.5 30.0127H28.5C29.6935 30.0127 30.8381 29.5386 31.682 28.6947C32.5259 27.8508 33 26.7062 33 25.5127V13.5127C33 12.3192 32.5259 11.1746 31.682 10.3307C30.8381 9.4868 29.6935 9.0127 28.5 9.0127ZM6 19.5127C6 19.8094 6.08797 20.0994 6.2528 20.3461C6.41762 20.5927 6.65189 20.785 6.92597 20.8985C7.20006 21.012 7.50166 21.0418 7.79264 20.9839C8.08361 20.926 8.35088 20.7831 8.56066 20.5734C8.77044 20.3636 8.9133 20.0963 8.97118 19.8053C9.02906 19.5144 8.99935 19.2128 8.88582 18.9387C8.77229 18.6646 8.58003 18.4303 8.33335 18.2655C8.08668 18.1007 7.79667 18.0127 7.5 18.0127C7.10218 18.0127 6.72064 18.1707 6.43934 18.452C6.15804 18.7333 6 19.1149 6 19.5127Z" fill="#ED1C24"/>
</svg>
