<svg width="22" height="29" viewBox="0 0 22 29" fill="none" xmlns="http://www.w3.org/2000/svg">
    <path d="M18.1481 7.17306V4.49731C18.1481 2.56356 16.5239 0.997314 14.5185 0.997314H7.25926C5.25389 0.997314 3.62963 2.56356 3.62963 4.49731V7.17306C1.40255 9.09573 0 11.8881 0 14.9973C0 18.1065 1.40255 20.8989 3.62963 22.8216V25.4973C3.62963 27.4311 5.25389 28.9973 7.25926 28.9973H14.5185C16.5239 28.9973 18.1481 27.4311 18.1481 25.4973V22.8216C20.3752 20.8989 21.7778 18.1065 21.7778 14.9973C21.7778 11.8881 20.3752 9.09573 18.1481 7.17306ZM6.04938 4.49731C6.04938 3.85273 6.5908 3.33065 7.25926 3.33065H14.5185C15.187 3.33065 15.7284 3.85273 15.7284 4.49731V5.59136C14.2705 4.89223 12.6278 4.49731 10.8889 4.49731C9.14999 4.49731 7.50759 4.89223 6.04938 5.59136V4.49731ZM15.7284 25.4973C15.7284 26.1419 15.187 26.664 14.5185 26.664H7.25926C6.5908 26.664 6.04938 26.1419 6.04938 25.4973V24.4033C7.50759 25.1024 9.14999 25.4973 10.8889 25.4973C12.6278 25.4973 14.2705 25.1024 15.7284 24.4033V25.4973ZM10.8889 23.164C6.21151 23.164 2.41975 19.5076 2.41975 14.9973C2.41975 10.487 6.21151 6.83065 10.8889 6.83065C15.5663 6.83065 19.358 10.487 19.358 14.9973C19.358 19.5076 15.5663 23.164 10.8889 23.164ZM13.3086 18.4973C13.1497 18.4975 12.9924 18.4674 12.8456 18.4087C12.6988 18.35 12.5655 18.264 12.4533 18.1555L10.0335 15.8221C9.80659 15.6034 9.67908 15.3067 9.67901 14.9973V10.3306C9.67901 10.0212 9.80648 9.72448 10.0334 9.50569C10.2603 9.2869 10.568 9.16398 10.8889 9.16398C11.2098 9.16398 11.5175 9.2869 11.7444 9.50569C11.9713 9.72448 12.0988 10.0212 12.0988 10.3306V14.514L14.164 16.5058C14.3332 16.669 14.4484 16.8768 14.495 17.1031C14.5417 17.3294 14.5177 17.5639 14.4262 17.7771C14.3346 17.9902 14.1796 18.1724 13.9807 18.3006C13.7818 18.4288 13.5479 18.4973 13.3086 18.4973Z" fill="#ED1C24"/>
</svg>
