<svg width="27" height="31" viewBox="0 0 27 31" fill="none" xmlns="http://www.w3.org/2000/svg">
    <path d="M22.4981 7.5198H21.9731C22.3154 6.81901 22.4949 6.0499 22.4981 5.26999C22.5026 4.22507 22.1943 3.2027 21.6129 2.33449C21.0314 1.46627 20.2034 0.791951 19.2355 0.398317C18.2675 0.00468255 17.2039 -0.0902458 16.1815 0.125751C15.1592 0.341747 14.2249 0.858783 13.4988 1.6103C12.7728 0.858783 11.8385 0.341747 10.8161 0.125751C9.79378 -0.0902458 8.73017 0.00468255 7.76221 0.398317C6.79426 0.791951 5.96627 1.46627 5.38482 2.33449C4.80337 3.2027 4.49507 4.22507 4.49961 5.26999C4.50281 6.0499 4.68227 6.81901 5.02457 7.5198H4.49961C3.30624 7.5198 2.16175 7.99386 1.31791 8.8377C0.474065 9.68154 0 10.826 0 12.0194V15.0191C0 15.4169 0.158022 15.7984 0.439302 16.0797C0.720582 16.361 1.10208 16.519 1.49987 16.519H2.99974V25.5182C2.99974 26.7116 3.47381 27.8561 4.31765 28.7C5.16149 29.5438 6.30598 30.0179 7.49935 30.0179H19.4983C20.6917 30.0179 21.8362 29.5438 22.68 28.7C23.5239 27.8561 23.9979 26.7116 23.9979 25.5182V16.519H25.4978C25.8956 16.519 26.2771 16.361 26.5584 16.0797C26.8397 15.7984 26.9977 15.4169 26.9977 15.0191V12.0194C26.9977 10.826 26.5236 9.68154 25.6798 8.8377C24.8359 7.99386 23.6914 7.5198 22.4981 7.5198ZM11.999 27.0181H7.49935C7.10156 27.0181 6.72007 26.8601 6.43879 26.5788C6.15751 26.2975 5.99948 25.916 5.99948 25.5182V16.519H11.999V27.0181ZM11.999 13.5193H2.99974V12.0194C2.99974 11.6216 3.15776 11.2401 3.43904 10.9588C3.72032 10.6776 4.10182 10.5195 4.49961 10.5195H11.999V13.5193ZM11.999 7.5198H9.74916C9.30419 7.5198 8.86922 7.38785 8.49924 7.14064C8.12926 6.89342 7.84089 6.54205 7.67061 6.13095C7.50033 5.71985 7.45577 5.26749 7.54258 4.83107C7.62939 4.39465 7.84367 3.99378 8.15831 3.67914C8.47295 3.36449 8.87383 3.15022 9.31024 3.06341C9.74666 2.9766 10.199 3.02116 10.6101 3.19144C11.0212 3.36172 11.3726 3.65008 11.6198 4.02006C11.867 4.39004 11.999 4.82502 11.999 5.26999V7.5198ZM14.9987 5.26999C14.9987 4.82502 15.1307 4.39004 15.3779 4.02006C15.6251 3.65008 15.9765 3.36172 16.3876 3.19144C16.7987 3.02116 17.251 2.9766 17.6874 3.06341C18.1239 3.15022 18.5247 3.36449 18.8394 3.67914C19.154 3.99378 19.3683 4.39465 19.4551 4.83107C19.5419 5.26749 19.4973 5.71985 19.3271 6.13095C19.1568 6.54205 18.8684 6.89342 18.4984 7.14064C18.1285 7.38785 17.6935 7.5198 17.2485 7.5198H14.9987V5.26999ZM20.9982 25.5182C20.9982 25.916 20.8402 26.2975 20.5589 26.5788C20.2776 26.8601 19.8961 27.0181 19.4983 27.0181H14.9987V16.519H20.9982V25.5182ZM23.9979 13.5193H14.9987V10.5195H22.4981C22.8959 10.5195 23.2774 10.6776 23.5586 10.9588C23.8399 11.2401 23.9979 11.6216 23.9979 12.0194V13.5193Z" fill="#ED1C24"/>
</svg>
