<svg width="17" height="37" viewBox="0 0 17 37" fill="none" xmlns="http://www.w3.org/2000/svg">
    <path d="M15.2308 19.3973V12.4742C15.2308 12.107 15.0849 11.7548 14.8252 11.4952C14.5656 11.2355 14.2134 11.0896 13.8462 11.0896H12.4615V6.93577C12.4615 5.09966 11.7321 3.33875 10.4338 2.04042C9.13549 0.742089 7.37458 0.0126953 5.53846 0.0126953C5.17124 0.0126953 4.81906 0.158574 4.55939 0.41824C4.29973 0.677905 4.15385 1.03009 4.15385 1.39731V11.0896H2.76923C2.40201 11.0896 2.04983 11.2355 1.79016 11.4952C1.53049 11.7548 1.38462 12.107 1.38462 12.4742V19.3973C1.01739 19.3973 0.66521 19.5432 0.405545 19.8029C0.145879 20.0625 0 20.4147 0 20.7819V34.6281C0 34.9953 0.145879 35.3475 0.405545 35.6072C0.66521 35.8668 1.01739 36.0127 1.38462 36.0127H15.2308C15.598 36.0127 15.9502 35.8668 16.2098 35.6072C16.4695 35.3475 16.6154 34.9953 16.6154 34.6281V20.7819C16.6154 20.4147 16.4695 20.0625 16.2098 19.8029C15.9502 19.5432 15.598 19.3973 15.2308 19.3973ZM6.92308 3.01731C7.73329 3.30377 8.43472 3.83446 8.93069 4.53626C9.42666 5.23806 9.69276 6.07641 9.69231 6.93577V11.0896H6.92308V3.01731ZM4.15385 13.8588H12.4615V19.3973H4.15385V13.8588ZM13.8462 33.2435H2.76923V22.1665H13.8462V33.2435Z" fill="#ED1C24"/>
</svg>
