<svg width="38" height="38" viewBox="0 0 38 38" fill="none" xmlns="http://www.w3.org/2000/svg">
    <path d="M28.0983 38.0005C25.5231 38.0005 22.6008 37.8467 20.8117 36.2988C18.7826 34.5467 16.3082 33.6263 13.749 33.6263H13.5714L13.5886 36.6215C13.5913 36.9826 13.4481 37.3299 13.1937 37.5863C12.9392 37.8427 12.5933 37.9865 12.2315 37.9865H2.71292C2.08999 37.9865 1.54795 37.5624 1.3969 36.9588L0.698518 34.1643C0.234649 32.3076 0 30.3984 0 28.4893C0 26.5807 0.234649 24.6717 0.697161 22.8155C1.13457 21.0681 1.35592 19.2696 1.35592 17.4697V17.2001C1.35592 15.7661 1.22739 14.3267 0.97551 12.922L0.494405 10.2401C0.162992 7.60743 0 4.99779 0 2.4115V1.35714C0 0.607726 0.607047 0 1.35714 0H16.3002C16.6779 0 17.0383 0.157021 17.2941 0.433334C17.5513 0.710325 17.6812 1.08082 17.6532 1.45716L17.2516 6.88367C17.196 7.6305 16.5625 8.18706 15.7977 8.13671C15.0502 8.08175 14.4896 7.431 14.5452 6.68349L14.8384 2.71427H2.71563C2.72757 5.08858 2.88256 7.48149 3.17678 9.83123L3.6473 12.4421C3.92823 14.0054 4.07005 15.6057 4.07005 17.2001V17.4697C4.07005 19.4915 3.82088 21.5113 3.33055 23.4734C2.92232 25.1144 2.71427 26.8021 2.71427 28.4893C2.71427 30.1772 2.92232 31.8649 3.33191 33.5063L3.77325 35.2724H10.8665L10.8492 32.2772C10.8465 31.916 10.9897 31.5688 11.2441 31.3124C11.4986 31.056 11.8445 30.9122 12.2064 30.9122H13.749C16.9589 30.9122 20.0642 32.0672 22.4922 34.1646C23.8308 35.3215 26.8379 35.3037 29.0367 35.2812L29.7233 35.278C29.7631 35.2747 29.8029 35.2727 29.844 35.2727C31.6783 35.2727 33.7365 34.9241 35.2142 34.3635L35.2855 33.9158L35.2657 33.5898C35.2299 32.9331 35.0033 32.3791 34.6295 32.0265C34.0583 31.4877 33.3386 31.2036 32.5487 31.2036L31.193 31.2029C31.1095 31.2029 31.0286 31.1955 30.9477 31.1803C24.4324 29.9809 19.8242 24.6577 18.1292 21.7016L18.0589 21.5783C16.2034 18.3459 15.0384 14.7906 14.5984 11.0115C14.5109 10.2674 15.0451 9.59346 15.7887 9.50661C16.5626 9.41853 17.2067 9.95392 17.2943 10.6974C17.6866 14.061 18.7654 17.3564 20.4128 20.2284L20.4831 20.3516C21.8363 22.7094 25.8321 27.4209 31.3204 28.4885L32.5504 28.4891C34.0215 28.4891 35.4223 29.0438 36.4906 30.0504C37.3746 30.882 37.902 32.0861 37.975 33.44L37.9998 34.3797C37.9998 35.4743 37.312 36.4703 36.2889 36.8581C34.4189 37.5677 32.1021 37.972 29.9604 37.986C29.922 37.9892 29.8836 37.9913 29.8438 37.9913L29.0579 37.9952C28.7451 37.9978 28.4243 38.0005 28.0983 38.0005Z" fill="#ED1C24"/>
    <path d="M17.6308 12.2109H6.78171C6.03162 12.2109 5.42457 11.6032 5.42457 10.8537V6.78369C5.42457 6.03428 6.03162 5.42656 6.78171 5.42656H17.6308C18.3809 5.42656 18.9879 6.03428 18.9879 6.78369V10.8537C18.9879 11.6032 18.3809 12.2109 17.6308 12.2109ZM8.13884 9.49661H16.2737V8.14083H8.13884V9.49661ZM16.275 16.2803H13.5621C12.812 16.2803 12.205 15.6725 12.205 14.9231C12.205 14.1737 12.812 13.566 13.5621 13.566H16.275C17.0251 13.566 17.6321 14.1737 17.6321 14.9231C17.6321 15.6725 17.0251 16.2803 16.275 16.2803ZM17.6308 20.3503H14.9192C14.1691 20.3503 13.5621 19.7426 13.5621 18.9932C13.5621 18.2438 14.1691 17.636 14.9192 17.636H17.6308C18.3809 17.636 18.9879 18.2438 18.9879 18.9932C18.9879 19.7426 18.3809 20.3503 17.6308 20.3503ZM20.3437 24.421H17.6321C16.8821 24.421 16.275 23.8133 16.275 23.0639C16.275 22.3145 16.8821 21.7068 17.6321 21.7068H20.3437C21.0938 21.7068 21.7008 22.3145 21.7008 23.0639C21.7008 23.8133 21.0939 24.421 20.3437 24.421Z" fill="#ED1C24"/>
</svg>
