<svg width="28" height="30" viewBox="0 0 28 30" fill="none" xmlns="http://www.w3.org/2000/svg">
    <path d="M9.92105 24.4337C9.46824 24.4337 9.02559 24.568 8.64909 24.8196C8.27259 25.0712 7.97914 25.4287 7.80585 25.8471C7.63257 26.2654 7.58723 26.7258 7.67557 27.1699C7.76391 27.614 7.98196 28.0219 8.30215 28.3421C8.62234 28.6623 9.03028 28.8804 9.4744 28.9687C9.91851 29.057 10.3788 29.0117 10.7972 28.8384C11.2155 28.6651 11.5731 28.3717 11.8247 27.9952C12.0763 27.6187 12.2105 27.176 12.2105 26.7232C12.2105 26.116 11.9693 25.5337 11.54 25.1043C11.1106 24.675 10.5283 24.4337 9.92105 24.4337ZM25.9474 19.8548H7.63158C7.22677 19.8548 6.83855 19.694 6.55231 19.4078C6.26607 19.1215 6.10526 18.7333 6.10526 18.3285C6.10526 17.9237 6.26607 17.5355 6.55231 17.2492C6.83855 16.963 7.22677 16.8022 7.63158 16.8022H20.5918C21.5861 16.799 22.5526 16.4736 23.3464 15.8749C24.1402 15.2762 24.7186 14.4364 24.9949 13.4812L27.4148 5.01123C27.4797 4.78407 27.491 4.54494 27.4478 4.31267C27.4046 4.0804 27.3081 3.86133 27.1659 3.6727C27.0236 3.48407 26.8395 3.33103 26.6281 3.22564C26.4166 3.12024 26.1836 3.06537 25.9474 3.06533H7.23332C6.91735 2.17603 6.33489 1.40578 5.56529 0.859517C4.79569 0.313254 3.87639 0.0175501 2.93265 0.0126953H1.52632C1.12151 0.0126953 0.733287 0.173503 0.447047 0.459743C0.160808 0.745983 0 1.13421 0 1.53901C0 1.94382 0.160808 2.33204 0.447047 2.61828C0.733287 2.90452 1.12151 3.06533 1.52632 3.06533H2.93265C3.26398 3.06648 3.58603 3.17494 3.85057 3.37445C4.11511 3.57397 4.3079 3.8538 4.40008 4.17206L4.63745 5.0035L4.63782 5.01123L7.14194 13.7756C5.97669 13.901 4.90386 14.4683 4.14435 15.3609C3.38485 16.2535 2.99648 17.4033 3.05924 18.5736C3.12199 19.7439 3.63107 20.8455 4.48166 21.6518C5.33226 22.458 6.45961 22.9074 7.63158 22.9074H25.9474C26.3522 22.9074 26.7404 22.7466 27.0266 22.4604C27.3129 22.1741 27.4737 21.7859 27.4737 21.3811C27.4737 20.9763 27.3129 20.5881 27.0266 20.3018C26.7404 20.0156 26.3522 19.8548 25.9474 19.8548ZM23.924 6.11796L22.06 12.6421C21.9679 12.9606 21.7751 13.2407 21.5104 13.4403C21.2457 13.64 20.9234 13.7485 20.5918 13.7495H10.3093L8.1298 6.11796H23.924ZM22.1316 24.4337C21.6788 24.4337 21.2361 24.568 20.8596 24.8196C20.4831 25.0712 20.1897 25.4287 20.0164 25.8471C19.8431 26.2654 19.7978 26.7258 19.8861 27.1699C19.9744 27.614 20.1925 28.0219 20.5127 28.3421C20.8329 28.6623 21.2408 28.8804 21.6849 28.9687C22.129 29.057 22.5894 29.0117 23.0077 28.8384C23.4261 28.6651 23.7836 28.3717 24.0352 27.9952C24.2868 27.6187 24.4211 27.176 24.4211 26.7232C24.4211 26.116 24.1798 25.5337 23.7505 25.1043C23.3211 24.675 22.7388 24.4337 22.1316 24.4337Z" fill="#ED1C24"/>
</svg>
