<svg width="29" height="31" viewBox="0 0 29 31" fill="none" xmlns="http://www.w3.org/2000/svg">
    <path fill-rule="evenodd" clip-rule="evenodd" d="M6 3.99731C4.34315 3.99731 3 5.34046 3 6.99731C3 8.65417 4.34315 9.99731 6 9.99731C7.65685 9.99731 9 8.65417 9 6.99731C9 5.34046 7.65685 3.99731 6 3.99731ZM0 6.99731C0 3.68361 2.68629 0.997314 6 0.997314C9.31371 0.997314 12 3.68361 12 6.99731C12 10.311 9.31371 12.9973 6 12.9973C2.68629 12.9973 0 10.311 0 6.99731Z" fill="#ED1C24"/>
    <path fill-rule="evenodd" clip-rule="evenodd" d="M6 21.9973C4.34315 21.9973 3 23.3405 3 24.9973C3 26.6542 4.34315 27.9973 6 27.9973C7.65685 27.9973 9 26.6542 9 24.9973C9 23.3405 7.65685 21.9973 6 21.9973ZM0 24.9973C0 21.6836 2.68629 18.9973 6 18.9973C9.31371 18.9973 12 21.6836 12 24.9973C12 28.311 9.31371 30.9973 6 30.9973C2.68629 30.9973 0 28.311 0 24.9973Z" fill="#ED1C24"/>
    <path fill-rule="evenodd" clip-rule="evenodd" d="M28.0607 2.93665C28.6464 3.52244 28.6464 4.47219 28.0607 5.05797L10.2407 22.878C9.65487 23.4638 8.70512 23.4638 8.11933 22.878C7.53355 22.2922 7.53355 21.3424 8.11933 20.7567L12.8787 15.9973L8.11933 11.238C7.53355 10.6522 7.53355 9.70244 8.11933 9.11665C8.70512 8.53087 9.65487 8.53087 10.2407 9.11665L15 13.876L25.9393 2.93665C26.5251 2.35087 27.4749 2.35087 28.0607 2.93665ZM17.6434 18.6576C18.2286 18.0713 19.1784 18.0704 19.7647 18.6557L28.0597 26.9357C28.646 27.521 28.6469 28.4707 28.0616 29.057C27.4764 29.6433 26.5266 29.6442 25.9403 29.0589L17.6453 20.7789C17.059 20.1937 17.0581 19.2439 17.6434 18.6576Z" fill="#ED1C24"/>
</svg>
