<svg width="31" height="36" viewBox="0 0 31 36" fill="none" xmlns="http://www.w3.org/2000/svg">
    <path d="M2.76933 2.76981V30.4631H27.6933V2.76981H2.76933ZM2.76933 0.000488281H27.6933C29.2227 0.000488281 30.4626 1.24036 30.4626 2.76981V30.4631C30.4626 31.9925 29.2227 33.2324 27.6933 33.2324H2.76933C1.23987 33.2324 0 31.9925 0 30.4631V2.76981C0 1.24036 1.23987 0.000488281 2.76933 0.000488281Z" fill="#ED1C24"/>
    <path d="M22.1233 6.87107C21.3586 6.87107 20.7387 6.25113 20.7387 5.4864C20.7387 4.72168 21.3586 4.10174 22.1233 4.10174H24.965C25.7297 4.10174 26.3497 4.72168 26.3497 5.4864C26.3497 6.25113 25.7297 6.87107 24.965 6.87107H22.1233Z" fill="#ED1C24"/>
    <path d="M18.0142 6.9238C17.2494 6.9238 16.6295 6.30387 16.6295 5.53914C16.6295 4.77441 17.2494 4.15448 18.0142 4.15448C18.7789 4.15448 19.3988 4.77441 19.3988 5.53914C19.3988 6.30387 18.7789 6.9238 18.0142 6.9238ZM13.8763 6.9238C13.1116 6.9238 12.4916 6.30387 12.4916 5.53914C12.4916 4.77441 13.1116 4.15448 13.8763 4.15448C14.641 4.15448 15.261 4.77441 15.261 5.53914C15.261 6.30387 14.641 6.9238 13.8763 6.9238ZM4.16121 31.8358C4.16121 31.0711 4.78114 30.4511 5.54587 30.4511C6.3106 30.4511 6.93053 31.0711 6.93053 31.8358L6.92331 34.6126C6.92331 35.3773 6.30338 35.9973 5.53865 35.9973C4.77392 35.9973 4.15399 35.3773 4.15399 34.6126L4.16121 31.8358ZM23.545 31.8461C23.545 31.0813 24.1649 30.4614 24.9297 30.4614C25.6944 30.4614 26.3143 31.0813 26.3143 31.8461V34.6126C26.3143 35.3773 25.6944 35.9973 24.9297 35.9973C24.1649 35.9973 23.545 35.3773 23.545 34.6126V31.8461ZM15.2313 29.0784C10.6429 29.0784 6.92331 25.3588 6.92331 20.7704C6.92331 16.1821 10.6429 12.4625 15.2313 12.4625C19.8197 12.4625 23.5393 16.1821 23.5393 20.7704C23.5393 25.3588 19.8197 29.0784 15.2313 29.0784ZM15.2313 26.3091C18.2902 26.3091 20.7699 23.8293 20.7699 20.7704C20.7699 17.7115 18.2902 15.2318 15.2313 15.2318C12.1724 15.2318 9.69264 17.7115 9.69264 20.7704C9.69264 23.8293 12.1724 26.3091 15.2313 26.3091Z" fill="#ED1C24"/>
    <path d="M15.2313 16.6164C15.996 16.6164 16.616 17.2364 16.616 18.0011C16.616 18.7658 15.996 19.3858 15.2313 19.3858C14.4666 19.3858 13.8466 20.0057 13.8466 20.7704C13.8466 21.5352 13.2267 22.1551 12.462 22.1551C11.6972 22.1551 11.0773 21.5352 11.0773 20.7704C11.0773 18.4762 12.9371 16.6164 15.2313 16.6164Z" fill="#ED1C24"/>
    <path d="M1.38466 11.1055V8.33619H29.0779V11.1055H1.38466Z" fill="#ED1C24"/>
</svg>
