<svg width="178" height="53" viewBox="0 0 178 53" fill="none" xmlns="http://www.w3.org/2000/svg">
    <path d="M99.0793 13.7561L93.5015 21.6403L87.9139 13.743H82.2248V35.4393H87.9139V21.5782L93.5015 28.9749L99.0793 21.5912V35.4393H104.768V13.7397H99.0793V13.7561ZM146.322 13.7397H133.76V28.1734H137.29L132.595 35.4393H139.086L143.66 28.1734H146.322V35.4393H152.012V13.7397H146.322ZM146.322 23.8093H139.449V18.1039H146.322V23.8093ZM120.985 13.7397H111.815L109.29 35.4393H114.835L115.384 30.5256H121.872L122.421 35.4393H127.966L125.441 13.7397H120.978H120.985ZM120.985 25.8212H115.918L116.745 18.4441H120.524L121.351 25.8212H120.988H120.985ZM171.048 24.5879L177.758 13.7397H171.876L166.782 22.3633H163.733V13.7397H158.044V35.4393H163.733V26.9466H166.799L171.876 35.4393H178L171.048 24.5912V24.5879Z" fill="#626262"/>
    <path d="M62.6975 14.8323C62.6975 14.8323 60.3257 14.2271 58.196 16.7461C57.2211 15.8923 55.6083 15.166 53.2953 16.239C53.2953 16.239 56.184 15.323 58.5231 18.1332L59.3475 18.1954C59.3475 18.1954 59.1185 17.7243 58.6409 17.191C58.9877 16.697 60.3552 14.9763 62.6942 14.8323H62.6975Z" fill="#626262"/>
    <path d="M65.5338 10.3076L63.9635 30.8589L63.656 31.3954L63.4924 32.7727L63.7705 33.5546L64.0748 31.3856L64.3823 30.9145L65.8904 10.3076H65.5338Z" fill="#626262"/>
    <path d="M79.0843 32.5444C79.0843 32.4888 79.0057 32.4038 78.9436 32.3841C78.6164 32.2664 78.2893 32.1649 77.9556 32.0635C77.069 31.7887 76.1792 31.5303 75.2992 31.2391C75.0604 31.1606 74.8183 30.9938 74.7594 30.7157C74.6907 30.3885 74.6678 30.0548 74.6253 29.7244C74.5598 29.1846 74.5009 28.6449 74.4322 28.1083C74.3177 27.2479 74.2 26.3843 74.0756 25.5239C74.0527 25.3603 74.1116 25.2949 74.2654 25.2753C74.4159 25.2556 74.5631 25.2229 74.7692 25.1869C74.5108 25.0528 74.2981 24.9546 74.0953 24.8369C74.0331 24.8009 73.9612 24.7289 73.9513 24.6635C73.9121 24.4247 73.8957 24.1793 73.8728 23.9372C73.8074 23.2371 73.7485 22.537 73.6798 21.8369C73.5784 20.8326 73.4704 19.8283 73.369 18.8239C73.3003 18.1369 73.248 17.4499 73.1793 16.7629C73.0811 15.8011 72.9764 14.8393 72.875 13.8742C72.7736 12.883 72.6722 11.8917 72.5806 10.9005C72.5642 10.7303 72.5544 10.5406 72.6133 10.3901C72.7213 10.1153 72.8848 9.86669 73.0255 9.60497C73.2807 9.13061 73.5359 8.65625 73.791 8.18188L73.7223 8.1917C73.6864 8.09683 73.6176 8.00195 73.6144 7.90708C73.6046 7.37711 73.6144 6.84713 73.6046 6.31715C73.6046 6.26481 73.5653 6.17321 73.5359 6.16994C73.4606 6.16012 73.3788 6.18302 73.3069 6.2092C73.2807 6.21901 73.2741 6.27462 73.2447 6.33351C72.9699 6.12741 72.5871 6.14377 72.3549 5.79372C72.2829 5.81989 72.1815 5.85588 72.0833 5.89186C72.0015 5.92131 71.9132 5.97365 71.8347 5.96711C71.7922 5.96384 71.7333 5.84934 71.7333 5.78391C71.7235 5.36516 71.7431 4.94641 71.7235 4.52767C71.7104 4.25614 71.7366 4.03695 72.0408 3.95189C72.0474 3.95189 72.0441 3.92572 72.0506 3.89955C71.3145 3.44809 70.5817 2.98027 69.826 2.55171C69.512 2.37178 69.3419 2.16567 69.4138 1.80254C69.4367 1.68804 69.476 1.58008 69.512 1.45904C69.4825 1.43287 69.4465 1.40342 69.4106 1.37071C69.1325 1.12535 69.0801 1.12535 68.8119 1.37725C68.7792 1.4067 68.7464 1.45904 68.753 1.4983C68.7792 1.73384 68.8119 1.96939 68.8479 2.22129L68.9918 2.26382C68.8871 2.2998 68.7955 2.33252 68.7039 2.36523L68.7203 2.40776L69.1456 2.44375V2.51899C68.8479 2.54843 68.5502 2.57461 68.2557 2.60405L68.2655 2.65966C68.6287 2.68911 68.9951 2.72182 69.3582 2.75126V2.78398C68.8446 2.81669 68.3342 2.84614 67.8206 2.87885V2.93447C68.5207 2.98354 69.2241 3.03261 69.9242 3.07841V3.12094C68.9918 3.17001 68.0562 3.22235 67.1205 3.27143V3.33031C68.2296 3.40556 69.3353 3.4808 70.4411 3.55931C70.3462 3.60512 70.2513 3.6182 70.1564 3.62147C68.9231 3.66727 67.6898 3.70653 66.4564 3.76215C66.3059 3.76869 66.1587 3.85375 66.0115 3.89955C66.0769 3.98133 66.126 4.02386 66.1751 4.02713C66.4106 4.04022 66.4172 4.19071 66.4172 4.37391C66.4074 4.90388 66.4172 5.43386 66.4172 5.96384V6.17648H66.1489C66.1391 6.07834 66.1293 5.99328 66.1195 5.89514H65.8021C65.8021 5.99001 65.8087 6.07507 65.8021 6.15358C65.7956 6.20265 65.7727 6.27462 65.7367 6.29098C65.4815 6.40875 65.2198 6.51344 64.9614 6.62467V6.54943C64.8567 6.52653 64.7455 6.50036 64.6179 6.47091V8.34546L64.9156 8.29311V7.64209C65.2296 7.7795 65.4979 7.894 65.7661 8.01504C65.7923 8.02813 65.7989 8.08701 65.8054 8.12627C65.8381 8.45669 65.825 8.46977 65.5077 8.57773C65.3572 8.63007 65.21 8.69223 65.0628 8.75112C64.9352 8.80019 64.8043 8.85253 64.6768 8.90161C64.9777 9.38578 65.2656 9.84051 65.5437 10.3018C65.632 10.4457 65.7138 10.4784 65.8774 10.4032C66.1326 10.2854 66.4008 10.1317 66.6723 10.1186C67.4739 10.0826 68.2754 10.1055 69.0769 10.1022C69.1554 10.1022 69.2012 10.1186 69.2306 10.1578L69.4465 23.4072C69.4465 23.4629 69.4465 23.5185 69.4465 23.5741V23.5806C69.4498 23.6624 69.4629 23.7442 69.4891 23.8195C69.5512 23.9994 69.5578 24.1499 69.5022 24.32C69.4727 24.4083 69.4596 24.4868 69.597 24.5228C70.2284 24.6831 70.8565 24.8565 71.4847 25.0266C71.5141 25.0332 71.537 25.0724 71.5893 25.1182C69.1717 25.1509 66.7934 25.1804 64.4281 25.2131C64.4412 25.1902 64.4576 25.1673 64.4707 25.1411L64.4837 24.8303C64.451 24.8532 64.415 24.8761 64.3692 24.8925C64.1337 24.9906 63.9014 25.1051 63.6691 25.2131V25.2654C64.0225 25.2229 64.2351 25.3799 64.3529 25.6973C64.3758 25.7562 64.487 25.8085 64.5623 25.815C64.8338 25.8314 65.1053 25.815 65.3768 25.8314C65.4913 25.8412 65.6189 25.887 65.704 25.959C65.9624 26.1782 66.1849 26.4464 66.4564 26.646C66.885 26.9633 67.0584 27.3494 66.9995 27.8859C66.9504 28.3177 66.9897 28.7594 66.9897 29.2043H68.0464V28.2392C68.4782 28.2784 68.8871 28.3144 69.2928 28.3635C69.3451 28.3701 69.4269 28.4617 69.4302 28.5205C69.4335 28.5696 69.44 28.6678 69.44 28.6678L69.5512 32.4823C69.5512 32.4823 69.5512 32.4921 69.5512 32.4986C69.5545 32.551 69.5709 32.6131 69.597 32.7015C69.6167 32.7669 69.6101 32.8454 69.6428 32.9043C69.6788 32.9664 69.7377 33.0384 69.7999 33.0515C70.0648 33.1137 70.3298 33.1562 70.5981 33.2053C71.0299 33.2805 71.4618 33.3525 71.8903 33.4277C72.3876 33.5161 72.8848 33.6077 73.3821 33.6993V33.7516C70.1826 33.6829 66.9897 33.6142 63.7738 33.5488C63.7738 33.4637 63.7738 33.395 63.7738 33.3263C63.7738 32.7342 63.7738 32.1388 63.7836 31.5466C63.7836 31.4289 63.8393 31.3111 63.8687 31.1933C63.8981 31.0788 63.9341 30.9676 63.9668 30.8531C63.8752 30.997 63.8033 31.1312 63.728 31.2686C63.7051 31.3078 63.6659 31.3471 63.6593 31.3896C63.6103 31.7593 63.5579 32.129 63.5219 32.4986C63.5088 32.6458 63.463 32.6786 63.3256 32.6295C63.1948 32.5837 63.0574 32.5608 62.9233 32.5215C62.2166 32.3252 61.51 32.1224 60.8001 31.9359C60.6561 31.8967 60.4762 31.8771 60.3421 31.9294C60.2407 31.9687 60.136 32.0112 60.0346 32.0537L52.3892 35.4593H79.0679C79.0777 35.4299 79.0875 35.4168 79.0875 35.4037C79.0875 34.4484 79.0941 33.4932 79.0875 32.5379L79.0843 32.5444ZM65.7858 6.37277V7.08267C65.5241 6.96163 65.282 6.85367 64.9974 6.72281C65.2754 6.5985 65.5142 6.49381 65.7858 6.37277ZM64.9188 6.79479C65.1838 6.90929 65.4292 7.01725 65.7302 7.15138C65.4357 7.28223 65.1969 7.38692 64.9188 7.51124V6.79806V6.79479ZM65.7858 7.9169C65.5339 7.80894 65.3049 7.71079 65.0137 7.58321C65.2983 7.45235 65.5306 7.34766 65.7858 7.23316V7.9169ZM67.4215 4.10238C67.6342 4.10238 67.8435 4.10238 68.0496 4.10238C68.3081 4.10238 68.5665 4.10892 68.825 4.10238C68.9624 4.09911 69.0049 4.14818 69.0049 4.28558C68.9983 4.79593 69.0049 5.303 68.9984 5.81335C68.9984 5.87551 68.9231 5.98346 68.8838 5.98674C68.4062 5.99982 67.9253 5.99328 67.4281 5.99328V4.10565L67.4215 4.10238ZM66.6658 4.33138C66.8261 4.27249 66.9864 4.21688 67.1794 4.14491C67.1794 4.40989 67.1794 4.6389 67.1794 4.86463C67.1794 5.19832 67.1794 5.532 67.1794 5.86569C67.1794 5.99001 67.1565 6.05871 67.0093 6.06525C66.9013 6.06852 66.7967 6.11105 66.6625 6.14377V4.32811L66.6658 4.33138ZM66.1456 8.01177V7.20045H66.4237C66.3387 7.15138 66.2569 7.1023 66.1456 7.04015V6.29752C66.5251 6.3695 66.8915 6.4382 67.2612 6.5069V6.54616H66.4335L66.4237 6.62467C66.8294 6.72936 67.2645 6.68029 67.6701 6.79806C67.2579 6.82096 66.8457 6.84713 66.4335 6.87003V6.92564C67.0551 6.98126 67.6767 7.0336 68.2983 7.08922V7.14156C67.6734 7.15792 67.0453 7.17755 66.4172 7.1939C66.5022 7.23316 66.584 7.29859 66.6691 7.30513C67.379 7.35748 68.0856 7.40001 68.7955 7.44581C68.8119 7.44581 68.8282 7.45562 68.8479 7.51124C68.0398 7.54068 67.2285 7.57339 66.4204 7.60284V7.67808L69.1292 7.84492V7.90054C68.1445 7.93653 67.1532 7.97578 66.1456 8.01177ZM69.4236 5.17869C69.4171 5.35207 69.4302 5.49275 69.6036 5.60398C69.6657 5.64323 69.6952 5.86896 69.6592 5.89186C69.5709 5.95402 69.4367 5.96384 69.319 5.96056C69.2862 5.96056 69.2306 5.83952 69.2274 5.77082C69.2208 5.303 69.2241 4.83845 69.2241 4.37064C69.2241 4.18089 69.3211 4.09038 69.5152 4.09911C69.561 4.09911 69.6101 4.11219 69.7181 4.12855C69.6494 4.22669 69.6134 4.31502 69.548 4.35755C69.4433 4.42298 69.4171 4.49822 69.4236 4.61272C69.4302 4.7992 69.4335 4.98894 69.4236 5.17541V5.17869ZM70.7846 5.95729C70.5098 5.95729 70.2546 5.95729 69.9994 5.95402C69.9667 5.95402 69.9045 5.89841 69.9045 5.87224C69.9111 5.77409 69.9078 5.62688 69.9667 5.58762C70.1172 5.4862 70.1237 5.35862 70.1205 5.20813C70.1172 5.05437 70.1205 4.90061 70.1205 4.75013C70.1205 4.58655 70.1597 4.41317 69.9536 4.32156C69.9209 4.30848 69.9078 4.21361 69.9111 4.15799C69.9111 4.13509 69.9863 4.10565 70.0256 4.10238C70.2284 4.09583 70.4312 4.09256 70.6308 4.10238C70.6831 4.10565 70.7747 4.18089 70.7747 4.22342C70.7846 4.78611 70.7813 5.3488 70.7813 5.95402L70.7846 5.95729ZM71.0005 5.53527C71.0005 5.15906 71.0005 4.78284 71.0005 4.40662C71.0005 4.33138 71.007 4.25614 71.0103 4.18416C71.3898 4.19725 71.501 4.30521 71.501 4.63562C71.501 5.06091 71.501 5.48293 71.501 5.91804C71.1673 5.9682 71.0005 5.83952 71.0005 5.532V5.53527ZM67.3823 28.2359C67.3495 28.2359 67.2972 28.1639 67.2972 28.1214C67.2874 27.9284 67.2939 27.7354 67.2939 27.4868C67.5491 27.7517 67.7716 27.9807 68.0202 28.2392C67.7912 28.2392 67.5884 28.2457 67.3823 28.2326V28.2359ZM71.7333 6.05871H72.0735V6.79806C71.8467 6.84604 71.7333 6.76098 71.7333 6.54288C71.7333 6.38585 71.7333 6.22882 71.7333 6.05871ZM72.0735 7.63228C72.0735 7.67154 71.9557 7.73042 71.8903 7.73042C71.838 7.73042 71.7431 7.66499 71.7398 7.62247C71.7235 7.40328 71.7333 7.18082 71.7333 6.942H72.0801C72.0801 7.17755 72.0899 7.40655 72.0702 7.63555L72.0735 7.63228ZM73.2807 6.51344V7.23316C73.0059 7.11539 72.7605 7.01397 72.5152 6.90929L72.5054 6.83732C72.754 6.73263 73.0026 6.62794 73.2807 6.51344ZM72.4465 6.05871C72.6984 6.16994 72.9405 6.2779 73.2447 6.41203C72.947 6.53961 72.7115 6.6443 72.4465 6.7588V6.05871ZM72.4399 6.98126C72.6984 7.09576 72.9339 7.20045 73.2251 7.32803C72.9306 7.45562 72.6918 7.55704 72.4399 7.66827V6.98126ZM72.5021 7.75332C72.7507 7.64209 73.0026 7.53086 73.297 7.40001C73.297 7.59629 73.3036 7.74678 73.2905 7.894C73.2905 7.92344 73.1956 7.97578 73.1564 7.96924C72.9437 7.92344 72.7311 7.86128 72.5184 7.80567L72.5021 7.75332Z" fill="#626262"/>
    <path d="M178 0.761719L70.5555 5.19782L178 9.63064V0.761719Z" fill="#626262"/>
    <path d="M0 50.8671V42.1978H6.05547V43.8695H1.85819V50.8671H0Z" fill="#626262"/>
    <path d="M12.8797 50.8671V46.395C12.8797 45.9992 12.8928 45.5641 12.9157 45.2075L8.87873 50.8671H7.13177V42.1978H8.98996V46.6698C8.98996 47.0657 8.97688 47.5008 8.95398 47.8574L12.991 42.1978H14.7379V50.8671H12.8797Z" fill="#626262"/>
    <path d="M16.5961 50.8671V42.1978H24.1368V50.8671H22.2917V43.8695H18.451V50.8671H16.5928H16.5961Z" fill="#626262"/>
    <path d="M32.0995 42.1978V43.8335H27.8532V45.6786H31.7299V47.3012H27.8532V49.2347H32.1748V50.8704H25.995V42.201H32.0995V42.1978Z" fill="#626262"/>
    <path d="M36.9053 42.1978C38.999 42.1978 40.6446 42.8651 40.6446 45.1093C40.6446 47.3536 38.999 48.0209 36.9053 48.0209H35.492V50.8704H33.6339V42.201H36.902L36.9053 42.1978ZM36.9936 43.8335H35.4953V46.3852H36.9936C37.9489 46.3852 38.7537 46.1268 38.7537 45.1093C38.7537 44.0919 37.9489 43.8335 36.9936 43.8335Z" fill="#626262"/>
    <path d="M51.2703 42.1976V50.867H49.4121V45.5279L47.1221 49.0088H46.0458L43.7558 45.5149V50.8637H41.8976V42.1943H43.6184L46.5921 46.7024L49.5528 42.1943H51.2736L51.2703 42.1976Z" fill="#626262"/>
    <path d="M52.2386 50.8671L55.7816 42.1978H57.787L61.3169 50.8671H59.3966L58.7652 49.2445H54.8035L54.159 50.8671H52.2386ZM55.3858 47.7102H58.1862L56.9724 44.6023C56.9103 44.4289 56.8481 44.2555 56.786 43.9218C56.7238 44.2555 56.6617 44.4289 56.5864 44.6023L55.3858 47.7102Z" fill="#626262"/>
    <path d="M65.5501 42.1978C67.6439 42.1978 69.2894 42.8651 69.2894 45.1093C69.2894 47.3536 67.6439 48.0209 65.5501 48.0209H64.1369V50.8704H62.2787V42.201H65.5469L65.5501 42.1978ZM65.6385 43.8335H64.1401V46.3852H65.6385C66.5937 46.3852 67.3985 46.1268 67.3985 45.1093C67.3985 44.0919 66.5937 43.8335 65.6385 43.8335Z" fill="#626262"/>
    <path d="M70.5425 50.8671V42.1978H72.4007V45.6393H73.8008L75.9927 42.1978H78.0603L75.2501 46.4212L78.2239 50.8671H76.1694L73.8041 47.3241H72.4039V50.8671H70.5458H70.5425Z" fill="#626262"/>
    <path d="M85.2051 42.1978V43.8335H80.9588V45.6786H84.8355V47.3012H80.9588V49.2347H85.2804V50.8704H79.1006V42.201H85.2051V42.1978Z" fill="#626262"/>
    <path d="M93.1449 42.1978V43.8695H90.4819V50.8671H88.6368V43.8695H85.9739V42.1978H93.1449Z" fill="#626262"/>
    <path d="M104.585 42.1978V50.8671H102.727V47.3732H98.8373V50.8671H96.9791V42.1978H98.8373V45.6917H102.727V42.1978H104.585Z" fill="#626262"/>
    <path d="M112.191 50.8671V46.395C112.191 45.9992 112.204 45.5641 112.227 45.2075L108.19 50.8671H106.443V42.1978H108.302V46.6698C108.302 47.0657 108.289 47.5008 108.266 47.8574L112.303 42.1978H114.05V50.8671H112.191Z" fill="#626262"/>
    <path d="M118.669 51.0407C117.642 51.0407 116.614 50.8935 115.463 50.4846V48.7016C116.601 49.2578 117.619 49.3821 118.535 49.369C119.477 49.369 120.38 49.1334 120.38 48.2436C120.38 47.4388 119.66 47.2294 118.819 47.2294H116.863L116.876 45.5937H118.695C119.513 45.5937 120.046 45.296 120.046 44.6908C120.046 43.9972 119.428 43.6995 118.325 43.6995C117.547 43.6865 116.667 43.8598 115.613 44.3669V42.5971C116.618 42.175 117.583 42.0278 118.486 42.0278C120.517 42.0278 121.904 42.7966 121.904 44.3931C121.904 45.3484 121.358 46.0027 120.517 46.2873C121.42 46.5359 122.251 47.2164 122.251 48.5151C122.251 50.4486 120.393 51.0407 118.672 51.0407H118.669Z" fill="#626262"/>
    <path d="M123.635 50.8671V42.1978H125.493V45.6393H126.893L129.085 42.1978H131.153L128.343 46.4212L131.316 50.8671H129.262L126.897 47.3241H125.496V50.8671H123.638H123.635Z" fill="#626262"/>
    <path d="M137.938 50.8671V46.395C137.938 45.9992 137.951 45.5641 137.974 45.2075L133.937 50.8671H132.19V42.1978H134.048V46.6698C134.048 47.0657 134.035 47.5008 134.012 47.8574L138.049 42.1978H139.796V50.8671H137.938Z" fill="#626262"/>
    <path d="M140.65 50.8671L143.758 46.3721L140.836 42.1978H143.005L144.926 45.0472L146.833 42.1978H149.012L146.09 46.3721L149.198 50.8671H147.019L144.926 47.7102L142.819 50.8671H140.653H140.65Z" fill="#626262"/>
    <path d="M159.821 52.7516V50.8705H152.8V42.2012H154.658V49.1988H158.499V42.2012H160.357V49.1988H161.46V52.7516H159.824H159.821Z" fill="#626262"/>
    <path d="M168.863 42.1978V43.8335H164.616V45.6786H168.493V47.3012H164.616V49.2347H168.938V50.8704H162.758V42.201H168.863V42.1978Z" fill="#626262"/>
    <path d="M178 42.1978V50.8671H176.142V47.3732H172.252V50.8671H170.394V42.1978H172.252V45.6917H176.142V42.1978H178Z" fill="#626262"/>
    <path d="M36.2314 24.5912L42.9412 13.7397H37.0591L31.9654 22.3633H28.9164V13.7397H23.2274V35.4393H28.9164V26.9466H31.9818L37.0591 35.4393H43.1832L36.2314 24.5912Z" fill="#626262"/>
    <path d="M0 19.4288H6.13725V35.4393H11.8263V19.4288H17.9636V13.7397H0V19.4288Z" fill="#626262"/>
</svg>
