<svg width="238" height="70" viewBox="0 0 238 70" fill="none" xmlns="http://www.w3.org/2000/svg">
    <path d="M132.477 17.3743L125.019 27.9161L117.548 17.3568H109.941V46.3665H117.548V27.833L125.019 37.723L132.477 27.8505V46.3665H140.084V17.3524H132.477V17.3743ZM195.645 17.3524H178.848V36.6514H183.568L177.291 46.3665H185.969L192.084 36.6514H195.645V46.3665H203.251V17.3524H195.645ZM195.645 30.8162H186.454V23.1876H195.645V30.8162ZM161.767 17.3524H149.506L146.129 46.3665H153.543L154.278 39.7964H162.952L163.687 46.3665H171.101L167.724 17.3524H161.758H161.767ZM161.767 33.5063H154.991L156.098 23.6425H161.15L162.256 33.5063H161.771H161.767ZM228.705 31.8573L237.676 17.3524H229.812L223.001 28.8828H218.924V17.3524H211.317V46.3665H218.924V35.011H223.023L229.812 46.3665H238L228.705 31.8616V31.8573Z" fill="white"/>
    <path d="M83.8315 18.8134C83.8315 18.8134 80.6602 18.0042 77.8126 21.3723C76.5091 20.2306 74.3526 19.2596 71.2601 20.6943C71.2601 20.6943 75.1225 19.4695 78.25 23.227L79.3523 23.3101C79.3523 23.3101 79.0461 22.6802 78.4075 21.9672C78.8712 21.3067 80.6996 19.0059 83.8271 18.8134H83.8315Z" fill="white"/>
    <path d="M87.6239 12.7639L85.5243 40.2426L85.1131 40.96L84.8944 42.8015L85.2662 43.847L85.673 40.9469L86.0842 40.317L88.1007 12.7639H87.6239Z" fill="white"/>
    <path d="M105.742 42.4953C105.742 42.421 105.637 42.3073 105.554 42.281C105.116 42.1235 104.679 41.9879 104.233 41.8523C103.047 41.4849 101.858 41.1393 100.681 40.75C100.362 40.6451 100.038 40.422 99.9592 40.0502C99.8673 39.6127 99.8367 39.1666 99.7798 38.7248C99.6923 38.003 99.6136 37.2813 99.5217 36.5639C99.3686 35.4135 99.2112 34.2587 99.0449 33.1083C99.0143 32.8896 99.0931 32.8021 99.2986 32.7759C99.4999 32.7496 99.6967 32.7059 99.9723 32.6578C99.6267 32.4784 99.3424 32.3472 99.0712 32.1897C98.9881 32.1416 98.8918 32.0454 98.8787 31.9579C98.8262 31.6386 98.8044 31.3105 98.7737 30.9868C98.6863 30.0508 98.6075 29.1147 98.5157 28.1786C98.3801 26.8357 98.2357 25.4928 98.1001 24.15C98.0083 23.2314 97.9383 22.3128 97.8464 21.3942C97.7152 20.1082 97.5752 18.8222 97.4396 17.5318C97.304 16.2064 97.1684 14.881 97.0459 13.5557C97.0241 13.3282 97.0109 13.0745 97.0897 12.8733C97.234 12.5059 97.4527 12.1734 97.6408 11.8235C97.982 11.1892 98.3232 10.555 98.6644 9.92071L98.5725 9.93383C98.5244 9.80698 98.4326 9.68013 98.4282 9.55327C98.4151 8.84465 98.4282 8.13603 98.4151 7.42741C98.4151 7.35743 98.3626 7.23495 98.3232 7.23058C98.2226 7.21745 98.1132 7.24807 98.017 7.28307C97.982 7.29619 97.9733 7.37055 97.9339 7.44929C97.5665 7.17371 97.0547 7.19558 96.7441 6.72754C96.6479 6.76254 96.5123 6.81065 96.3811 6.85877C96.2717 6.89814 96.1536 6.96812 96.0486 6.95938C95.9918 6.955 95.913 6.8019 95.913 6.71442C95.8999 6.15452 95.9261 5.59463 95.8999 5.03473C95.8824 4.67167 95.9174 4.3786 96.3242 4.26487C96.3329 4.26487 96.3286 4.22988 96.3373 4.19488C95.3531 3.59124 94.3733 2.96573 93.3629 2.39271C92.9429 2.15213 92.7155 1.87656 92.8117 1.39102C92.8423 1.23793 92.8948 1.09358 92.9429 0.931734C92.9036 0.89674 92.8555 0.857372 92.8073 0.81363C92.4355 0.485566 92.3655 0.485566 92.0069 0.822379C91.9631 0.861746 91.9194 0.931734 91.9281 0.984224C91.9631 1.29917 92.0069 1.61411 92.055 1.95092L92.2474 2.00779C92.1075 2.0559 91.985 2.09964 91.8625 2.14339L91.8844 2.20025L92.453 2.24837V2.34897C92.055 2.38834 91.6569 2.42333 91.2633 2.4627L91.2764 2.53706C91.7619 2.57643 92.2518 2.62017 92.7374 2.65954V2.70328C92.0506 2.74702 91.3682 2.78639 90.6815 2.83013V2.9045C91.6176 2.97011 92.558 3.03572 93.4941 3.09696V3.15383C92.2474 3.21944 90.9964 3.28943 89.7454 3.35504V3.43377C91.2283 3.53438 92.7067 3.63499 94.1852 3.73997C94.0584 3.80121 93.9315 3.8187 93.8047 3.82308C92.1556 3.88432 90.5065 3.93681 88.8574 4.01117C88.6562 4.01992 88.4594 4.13365 88.2626 4.19488C88.35 4.30424 88.4156 4.3611 88.4813 4.36548C88.7962 4.38297 88.805 4.58419 88.805 4.82914C88.7918 5.53776 88.805 6.24638 88.805 6.955V7.23932H88.4463C88.4331 7.1081 88.42 6.99437 88.4069 6.86314H87.9826C87.9826 6.98999 87.9914 7.10372 87.9826 7.2087C87.9739 7.27432 87.9432 7.37055 87.8951 7.39242C87.5539 7.54989 87.204 7.68987 86.8584 7.83859V7.73798C86.7185 7.70736 86.5697 7.67237 86.3991 7.633V10.1394L86.7972 10.0694V9.19897C87.2171 9.38268 87.5758 9.53578 87.9345 9.69762C87.9695 9.71512 87.9782 9.79385 87.987 9.84634C88.0307 10.2881 88.0132 10.3056 87.5889 10.45C87.3877 10.52 87.1909 10.6031 86.994 10.6818C86.8234 10.7474 86.6485 10.8174 86.4779 10.883C86.8803 11.5304 87.2652 12.1384 87.637 12.7552C87.7551 12.9476 87.8645 12.9914 88.0832 12.8908C88.4244 12.7333 88.7831 12.5277 89.1461 12.5102C90.2178 12.4621 91.2895 12.4927 92.3612 12.4884C92.4662 12.4884 92.5274 12.5102 92.5668 12.5627L92.8555 30.2782C92.8555 30.3526 92.8555 30.4269 92.8555 30.5013V30.51C92.8598 30.6194 92.8773 30.7288 92.9123 30.8294C92.9954 31.0699 93.0042 31.2712 92.9298 31.4986C92.8905 31.6167 92.873 31.7217 93.0567 31.7698C93.9009 31.9841 94.7407 32.216 95.5806 32.4434C95.6199 32.4522 95.6506 32.5047 95.7206 32.5659C92.488 32.6097 89.308 32.649 86.1454 32.6928C86.1629 32.6622 86.1848 32.6315 86.2023 32.5965L86.2198 32.181C86.1761 32.2116 86.1279 32.2422 86.0667 32.2641C85.7518 32.3953 85.4412 32.5484 85.1306 32.6928V32.7628C85.603 32.7059 85.8874 32.9159 86.0448 33.3402C86.0755 33.4189 86.2242 33.4889 86.3248 33.4976C86.6878 33.5195 87.0509 33.4976 87.414 33.5195C87.5671 33.5326 87.7376 33.5939 87.8514 33.6901C88.1969 33.9832 88.4944 34.3418 88.8574 34.6087C89.4305 35.033 89.6623 35.5491 89.5836 36.2665C89.5179 36.8439 89.5704 37.4344 89.5704 38.0293H90.9833V36.7389C91.5607 36.7914 92.1075 36.8395 92.6499 36.9051C92.7199 36.9139 92.8292 37.0363 92.8336 37.1151C92.838 37.1807 92.8467 37.3119 92.8467 37.3119L92.9954 42.4122C92.9954 42.4122 92.9954 42.4254 92.9954 42.4341C92.9998 42.5041 93.0217 42.5872 93.0567 42.7053C93.0829 42.7928 93.0742 42.8978 93.1179 42.9765C93.166 43.0596 93.2448 43.1558 93.3279 43.1733C93.6822 43.2565 94.0365 43.3133 94.3952 43.3789C94.9726 43.4795 95.55 43.5758 96.123 43.6764C96.7879 43.7945 97.4527 43.917 98.1176 44.0394V44.1094C93.8397 44.0176 89.5704 43.9257 85.2706 43.8382C85.2706 43.7245 85.2706 43.6326 85.2706 43.5408C85.2706 42.7491 85.2706 41.9529 85.2837 41.1612C85.2837 41.0037 85.3581 40.8463 85.3975 40.6888C85.4368 40.5357 85.4849 40.387 85.5287 40.2339C85.4062 40.4263 85.31 40.6057 85.2094 40.7894C85.1787 40.8419 85.1263 40.8944 85.1175 40.9513C85.0519 41.4455 84.9819 41.9398 84.9338 42.4341C84.9163 42.6309 84.8551 42.6747 84.6713 42.6091C84.4964 42.5478 84.3127 42.5172 84.1333 42.4647C83.1885 42.2023 82.2437 41.9311 81.2945 41.6817C81.102 41.6293 80.8614 41.603 80.6821 41.673C80.5465 41.7255 80.4065 41.7824 80.2709 41.8392L70.0484 46.3928H105.72C105.733 46.3534 105.746 46.3359 105.746 46.3184C105.746 45.0411 105.755 43.7639 105.746 42.4866L105.742 42.4953ZM87.9607 7.50178V8.45098C87.6108 8.28913 87.2871 8.14478 86.9065 7.96981C87.2784 7.8036 87.5977 7.66362 87.9607 7.50178ZM86.8016 8.06605C87.1559 8.21914 87.4839 8.36349 87.8864 8.54284C87.4927 8.7178 87.1734 8.85778 86.8016 9.024V8.07042V8.06605ZM87.9607 9.5664C87.6239 9.42205 87.3177 9.29082 86.9284 9.12023C87.309 8.94526 87.6195 8.80529 87.9607 8.65219V9.5664ZM90.1478 4.46608C90.4322 4.46608 90.7121 4.46608 90.9877 4.46608C91.3332 4.46608 91.6788 4.47483 92.0244 4.46608C92.2081 4.46171 92.2649 4.52732 92.2649 4.71104C92.2562 5.39341 92.2649 6.07141 92.2562 6.75379C92.2562 6.8369 92.1556 6.98125 92.1031 6.98562C91.4645 7.00312 90.8215 6.99437 90.1566 6.99437V4.47046L90.1478 4.46608ZM89.1374 4.77228C89.3517 4.69354 89.5661 4.61918 89.8241 4.52295C89.8241 4.87726 89.8241 5.18345 89.8241 5.48527C89.8241 5.93144 89.8241 6.37761 89.8241 6.82378C89.8241 6.99 89.7935 7.08185 89.5967 7.0906C89.4523 7.09498 89.3124 7.15184 89.133 7.19558V4.7679L89.1374 4.77228ZM88.4419 9.69325V8.60845H88.8137C88.7 8.54284 88.5906 8.47722 88.4419 8.39411V7.40117C88.9493 7.4974 89.4392 7.58926 89.9335 7.68112V7.73361H88.8268L88.8137 7.83859C89.3561 7.97856 89.9379 7.91295 90.4803 8.07042C89.9291 8.10104 89.378 8.13603 88.8268 8.16665V8.24102C89.6579 8.31538 90.489 8.38536 91.3201 8.45973V8.52971C90.4846 8.55158 89.6448 8.57783 88.805 8.5997C88.9187 8.65219 89.028 8.73967 89.1418 8.74842C90.091 8.81841 91.0358 8.87527 91.985 8.93651C92.0069 8.93651 92.0287 8.94963 92.055 9.024C90.9746 9.06336 89.8898 9.10711 88.8093 9.14647V9.24708L92.4312 9.47016V9.54453C91.1145 9.59264 89.7891 9.64513 88.4419 9.69325ZM92.8248 5.90519C92.8161 6.13703 92.8336 6.32512 93.0654 6.47384C93.1485 6.52633 93.1879 6.82815 93.1398 6.85877C93.0217 6.94188 92.8423 6.955 92.6849 6.95063C92.6411 6.95063 92.5668 6.78878 92.5624 6.69692C92.5536 6.07141 92.558 5.45028 92.558 4.82477C92.558 4.57106 92.6878 4.45005 92.9473 4.46171C93.0086 4.46171 93.0742 4.47921 93.2185 4.50108C93.1267 4.6323 93.0785 4.75041 92.9911 4.80727C92.8511 4.89475 92.8161 4.99536 92.8248 5.14846C92.8336 5.39779 92.838 5.65149 92.8248 5.90082V5.90519ZM94.6445 6.94625C94.2771 6.94625 93.9359 6.94625 93.5947 6.94188C93.551 6.94188 93.4678 6.86752 93.4678 6.83252C93.4766 6.7013 93.4722 6.50446 93.551 6.45197C93.7522 6.31637 93.7609 6.14578 93.7565 5.94456C93.7522 5.73898 93.7565 5.53339 93.7565 5.33217C93.7565 5.11346 93.809 4.88163 93.5335 4.75916C93.4897 4.74166 93.4722 4.61481 93.4766 4.54045C93.4766 4.50983 93.5772 4.47046 93.6297 4.46608C93.9009 4.45734 94.1721 4.45296 94.4389 4.46608C94.5089 4.47046 94.6314 4.57106 94.6314 4.62793C94.6445 5.38029 94.6401 6.13265 94.6401 6.94188L94.6445 6.94625ZM94.9332 6.38198C94.9332 5.87895 94.9332 5.37592 94.9332 4.87288C94.9332 4.77228 94.9419 4.67167 94.9463 4.57544C95.4537 4.59294 95.6025 4.73728 95.6025 5.17908C95.6025 5.74772 95.6025 6.31199 95.6025 6.89376C95.1563 6.96083 94.9332 6.78878 94.9332 6.37761V6.38198ZM90.0953 36.7345C90.0516 36.7345 89.9816 36.6383 89.9816 36.5814C89.9685 36.3234 89.9772 36.0653 89.9772 35.7328C90.3184 36.0871 90.6159 36.3933 90.9483 36.7389C90.6421 36.7389 90.3709 36.7477 90.0953 36.7302V36.7345ZM95.913 7.08185H96.3679V8.07042C96.0647 8.13458 95.913 8.02085 95.913 7.72923C95.913 7.51927 95.913 7.30931 95.913 7.08185ZM96.3679 9.18584C96.3679 9.23833 96.2105 9.31707 96.123 9.31707C96.053 9.31707 95.9261 9.22958 95.9218 9.17272C95.8999 8.87965 95.913 8.5822 95.913 8.26289H96.3767C96.3767 8.57783 96.3898 8.88402 96.3636 9.19022L96.3679 9.18584ZM97.982 7.68987V8.65219C97.6146 8.49472 97.2865 8.35912 96.9585 8.21914L96.9453 8.12291C97.2778 7.98294 97.6102 7.84296 97.982 7.68987ZM96.8666 7.08185C97.2034 7.23058 97.5271 7.37492 97.9339 7.55427C97.5358 7.72486 97.2209 7.86483 96.8666 8.01793V7.08185ZM96.8578 8.31538C97.2034 8.46847 97.5184 8.60845 97.9077 8.77904C97.514 8.94963 97.1947 9.08524 96.8578 9.23396V8.31538ZM96.941 9.34769C97.2734 9.19897 97.6102 9.05024 98.0039 8.87527C98.0039 9.13773 98.0126 9.33894 97.9951 9.53578C97.9951 9.57514 97.8683 9.64513 97.8158 9.63638C97.5315 9.57515 97.2472 9.49204 96.9628 9.41767L96.941 9.34769Z" fill="white"/>
    <path d="M238 0L94.3383 5.93141L238 11.8584V0Z" fill="#FFCB05"/>
    <path d="M0 66.9952V55.4036H8.09664V57.6388H2.48454V66.9952H0Z" fill="white"/>
    <path d="M17.2212 66.9952V61.0157C17.2212 60.4864 17.2387 59.9047 17.2693 59.4279L11.8716 66.9952H9.53577V55.4036H12.0203V61.3832C12.0203 61.9124 12.0028 62.4942 11.9722 62.971L17.37 55.4036H19.7058V66.9952H17.2212Z" fill="white"/>
    <path d="M22.1903 66.9952V55.4036H32.2728V66.9952H29.8058V57.6388H24.6705V66.9952H22.1859H22.1903Z" fill="white"/>
    <path d="M42.9196 55.4036V57.5907H37.2419V60.0578H42.4254V62.2274H37.2419V64.8125H43.0202V66.9996H34.7574V55.408H42.9196V55.4036Z" fill="white"/>
    <path d="M49.3453 55.4036C52.1448 55.4036 54.345 56.296 54.345 59.2967C54.345 62.2974 52.1448 63.1897 49.3453 63.1897H47.4557V66.9996H44.9711V55.408H49.341L49.3453 55.4036ZM49.4634 57.5907H47.46V61.0026H49.4634C50.7407 61.0026 51.8167 60.657 51.8167 59.2967C51.8167 57.9363 50.7407 57.5907 49.4634 57.5907Z" fill="white"/>
    <path d="M68.5524 55.4036V66.9952H66.0678V59.8565L63.0059 64.5107H61.5668L58.5049 59.839V66.9908H56.0203V55.3992H58.3211L62.2973 61.4269L66.2559 55.3992H68.5568L68.5524 55.4036Z" fill="white"/>
    <path d="M69.8472 66.9952L74.5844 55.4036H77.2658L81.9856 66.9952H79.4179L78.5737 64.8256H73.2765L72.4148 66.9952H69.8472ZM74.0551 62.7741H77.7995L76.1766 58.6187C76.0935 58.3868 76.0104 58.155 75.9273 57.7088C75.8442 58.155 75.7611 58.3868 75.6605 58.6187L74.0551 62.7741Z" fill="white"/>
    <path d="M87.6457 55.4036C90.4452 55.4036 92.6455 56.296 92.6455 59.2967C92.6455 62.2974 90.4452 63.1897 87.6457 63.1897H85.7561V66.9996H83.2715V55.408H87.6414L87.6457 55.4036ZM87.7638 57.5907H85.7605V61.0026H87.7638C89.0411 61.0026 90.1172 60.657 90.1172 59.2967C90.1172 57.9363 89.0411 57.5907 87.7638 57.5907Z" fill="white"/>
    <path d="M94.3208 66.9952V55.4036H96.8053V60.0053H98.6775L101.608 55.4036H104.373L100.615 61.0507L104.591 66.9952H101.844L98.6819 62.258H96.8097V66.9952H94.3252H94.3208Z" fill="white"/>
    <path d="M113.926 55.4036V57.5907H108.248V60.0578H113.432V62.2274H108.248V64.8125H114.027V66.9996H105.764V55.408H113.926V55.4036Z" fill="white"/>
    <path d="M124.542 55.4036V57.6388H120.981V66.9952H118.514V57.6388H114.954V55.4036H124.542Z" fill="white"/>
    <path d="M139.839 55.4036V66.9952H137.354V62.3236H132.153V66.9952H129.669V55.4036H132.153V60.0753H137.354V55.4036H139.839Z" fill="white"/>
    <path d="M150.009 66.9952V61.0157C150.009 60.4864 150.026 59.9047 150.057 59.4279L144.659 66.9952H142.323V55.4036H144.808V61.3832C144.808 61.9124 144.79 62.4942 144.76 62.971L150.157 55.4036H152.493V66.9952H150.009Z" fill="white"/>
    <path d="M158.67 67.2271C157.296 67.2271 155.923 67.0302 154.383 66.4834V64.0995C155.905 64.8431 157.265 65.0093 158.49 64.9918C159.75 64.9918 160.957 64.6769 160.957 63.4871C160.957 62.4111 159.995 62.1311 158.871 62.1311H156.255L156.273 59.944H158.705C159.798 59.944 160.511 59.546 160.511 58.7367C160.511 57.8094 159.684 57.4114 158.21 57.4114C157.169 57.3939 155.993 57.6257 154.584 58.3037V55.9373C155.927 55.373 157.217 55.1761 158.425 55.1761C161.141 55.1761 162.996 56.2041 162.996 58.3387C162.996 59.616 162.265 60.4908 161.141 60.8714C162.348 61.2038 163.459 62.1136 163.459 63.8502C163.459 66.4353 160.975 67.2271 158.674 67.2271H158.67Z" fill="white"/>
    <path d="M165.31 66.9952V55.4036H167.794V60.0053H169.666L172.597 55.4036H175.362L171.604 61.0507L175.58 66.9952H172.833L169.671 62.258H167.799V66.9952H165.314H165.31Z" fill="white"/>
    <path d="M184.434 66.9952V61.0157C184.434 60.4864 184.451 59.9047 184.482 59.4279L179.084 66.9952H176.748V55.4036H179.233V61.3832C179.233 61.9124 179.215 62.4942 179.185 62.971L184.582 55.4036H186.918V66.9952H184.434Z" fill="white"/>
    <path d="M188.06 66.9952L192.215 60.9851L188.309 55.4036H191.209L193.777 59.2135L196.327 55.4036H199.24L195.334 60.9851L199.49 66.9952H196.576L193.777 62.7741L190.96 66.9952H188.064H188.06Z" fill="white"/>
    <path d="M213.693 69.5147V66.9996H204.306V55.408H206.79V64.7644H211.925V55.408H214.41V64.7644H215.884V69.5147H213.697H213.693Z" fill="white"/>
    <path d="M225.783 55.4036V57.5907H220.105V60.0578H225.289V62.2274H220.105V64.8125H225.883V66.9996H217.621V55.408H225.783V55.4036Z" fill="white"/>
    <path d="M238 55.4036V66.9952H235.515V62.3236H230.315V66.9952H227.83V55.4036H230.315V60.0753H235.515V55.4036H238Z" fill="white"/>
    <path d="M48.4442 31.8616L57.4157 17.3524H49.5509L42.7402 28.8828H38.6635V17.3524H31.0568V46.3665H38.6635V35.011H42.7621L49.5509 46.3665H57.7394L48.4442 31.8616Z" fill="white"/>
    <path d="M0 24.9591H8.20599V46.3665H15.8127V24.9591H24.0187V17.3524H0V24.9591Z" fill="white"/>
</svg>
