<svg width="170" height="50" viewBox="0 0 170 50" fill="none" xmlns="http://www.w3.org/2000/svg">
    <path d="M94.2194 12.5614L88.9209 20.0508L83.613 12.549H78.2089V33.1589H83.613V19.9918L88.9209 27.0182L94.2194 20.0042V33.1589H99.6236V12.5459H94.2194V12.5614ZM139.097 12.5459H127.163V26.2568H130.517L126.057 33.1589H132.223L136.567 26.2568H139.097V33.1589H144.501V12.5459H139.097ZM139.097 22.1112H132.568V16.6915H139.097V22.1112ZM115.028 12.5459H106.317L103.918 33.1589H109.186L109.708 28.4912H115.87L116.392 33.1589H121.66L119.261 12.5459H115.022H115.028ZM115.028 24.0224H110.214L111.001 17.0147H114.59L115.376 24.0224H115.031H115.028ZM162.584 22.8508L168.958 12.5459H163.371L158.532 20.7376H155.636V12.5459H150.231V33.1589H155.636V25.0914H158.548L163.371 33.1589H169.188L162.584 22.8539V22.8508Z" fill="white"/>
    <path d="M59.6594 13.5838C59.6594 13.5838 57.4063 13.0089 55.3833 15.4018C54.4572 14.5907 52.9251 13.9008 50.728 14.9201C50.728 14.9201 53.4721 14.05 55.694 16.7195L56.4772 16.7785C56.4772 16.7785 56.2596 16.331 55.8059 15.8245C56.1353 15.3552 57.4343 13.7206 59.6563 13.5838H59.6594Z" fill="white"/>
    <path d="M62.3537 9.28598L60.862 28.8082L60.5699 29.3178L60.4145 30.6261L60.6786 31.3689L60.9676 29.3085L61.2598 28.861L62.6924 9.28598H62.3537Z" fill="white"/>
    <path d="M75.2255 30.4086C75.2255 30.3558 75.1509 30.275 75.0919 30.2563C74.7811 30.1445 74.4704 30.0481 74.1534 29.9518C73.3112 29.6907 72.4659 29.4452 71.63 29.1687C71.4031 29.0941 71.1732 28.9356 71.1172 28.6714C71.052 28.3607 71.0302 28.0437 70.9898 27.7298C70.9276 27.2171 70.8717 26.7043 70.8065 26.1946C70.6977 25.3773 70.5858 24.5569 70.4677 23.7396C70.446 23.5842 70.5019 23.5221 70.648 23.5034C70.7909 23.4848 70.9308 23.4537 71.1265 23.4195C70.881 23.2921 70.679 23.1989 70.4864 23.087C70.4273 23.0528 70.359 22.9845 70.3496 22.9223C70.3123 22.6954 70.2968 22.4624 70.275 22.2324C70.2129 21.5674 70.157 20.9023 70.0917 20.2373C69.9954 19.2833 69.8928 18.3292 69.7965 17.3752C69.7312 16.7226 69.6815 16.07 69.6162 15.4174C69.523 14.5037 69.4235 13.5901 69.3272 12.6733C69.2309 11.7317 69.1345 10.7901 69.0475 9.84848C69.032 9.68688 69.0227 9.50664 69.0786 9.36368C69.1812 9.10264 69.3365 8.86646 69.4702 8.61785C69.7126 8.16724 69.955 7.71664 70.1974 7.26603L70.1321 7.27535C70.0979 7.18523 70.0326 7.09511 70.0295 7.00499C70.0202 6.50155 70.0295 5.99811 70.0202 5.49467C70.0202 5.44495 69.9829 5.35794 69.955 5.35483C69.8835 5.34551 69.8058 5.36726 69.7374 5.39212C69.7126 5.40145 69.7063 5.45428 69.6784 5.51021C69.4173 5.31443 69.0537 5.32997 68.8331 4.99745C68.7647 5.02231 68.6684 5.0565 68.5752 5.09068C68.4975 5.11865 68.4136 5.16837 68.339 5.16216C68.2986 5.15905 68.2427 5.05028 68.2427 4.98813C68.2333 4.59035 68.252 4.19257 68.2333 3.7948C68.2209 3.53686 68.2458 3.32865 68.5348 3.24785C68.541 3.24785 68.5379 3.22299 68.5441 3.19813C67.8449 2.76928 67.1488 2.32488 66.4309 1.91778C66.1326 1.74686 65.971 1.55108 66.0393 1.20613C66.0611 1.09737 66.0984 0.994815 66.1326 0.879833C66.1046 0.854972 66.0704 0.827003 66.0362 0.795926C65.7721 0.562854 65.7224 0.562854 65.4675 0.802142C65.4365 0.83011 65.4054 0.879833 65.4116 0.917124C65.4365 1.14087 65.4675 1.36462 65.5017 1.60391L65.6384 1.64431C65.539 1.6785 65.452 1.70957 65.365 1.74065L65.3805 1.78105L65.7845 1.81523V1.88671C65.5017 1.91468 65.2189 1.93954 64.9392 1.96751L64.9486 2.02034C65.2935 2.0483 65.6416 2.07938 65.9865 2.10735V2.13843C65.4986 2.1695 65.0138 2.19747 64.5259 2.22855V2.28138C65.1909 2.32799 65.8591 2.37461 66.5241 2.41811V2.45851C65.6385 2.50513 64.7497 2.55485 63.8609 2.60146V2.6574C64.9144 2.72888 65.9648 2.80035 67.0151 2.87494C66.925 2.91844 66.8349 2.93087 66.7448 2.93398C65.5732 2.97749 64.4016 3.01478 63.23 3.06761C63.0871 3.07382 62.9472 3.15462 62.8074 3.19813C62.8695 3.27582 62.9162 3.31622 62.9628 3.31933C63.1865 3.33176 63.1927 3.47471 63.1927 3.64874C63.1834 4.15218 63.1927 4.65561 63.1927 5.15905V5.36105H62.9379C62.9286 5.26782 62.9193 5.18702 62.9099 5.09379H62.6085C62.6085 5.18391 62.6147 5.26471 62.6085 5.33929C62.6023 5.38591 62.5805 5.45428 62.5464 5.46981C62.304 5.58169 62.0553 5.68113 61.8098 5.78679V5.71532C61.7104 5.69356 61.6047 5.6687 61.4835 5.64073V7.42141L61.7663 7.37169V6.75327C62.0647 6.88379 62.3195 6.99256 62.5743 7.10754C62.5992 7.11997 62.6054 7.17591 62.6116 7.2132C62.6427 7.52707 62.6303 7.5395 62.3288 7.64205C62.1859 7.69177 62.046 7.75082 61.9062 7.80676C61.785 7.85337 61.6607 7.90309 61.5395 7.94971C61.8254 8.40964 62.0989 8.8416 62.363 9.27978C62.4469 9.41651 62.5246 9.44759 62.68 9.37611C62.9224 9.26424 63.1772 9.11818 63.4351 9.10575C64.1965 9.07157 64.9579 9.09332 65.7192 9.09021C65.7938 9.09021 65.8373 9.10575 65.8653 9.14304L66.0704 21.729C66.0704 21.7818 66.0704 21.8346 66.0704 21.8875V21.8937C66.0735 21.9714 66.086 22.0491 66.1108 22.1205C66.1699 22.2915 66.1761 22.4344 66.1232 22.596C66.0953 22.6799 66.0828 22.7545 66.2134 22.7887C66.8131 22.941 67.4098 23.1057 68.0065 23.2673C68.0344 23.2735 68.0562 23.3108 68.1059 23.3543C65.8094 23.3853 63.5501 23.4133 61.3033 23.4444C61.3157 23.4226 61.3313 23.4009 61.3437 23.376L61.3561 23.0808C61.325 23.1026 61.2909 23.1243 61.2474 23.1398C61.0236 23.2331 60.803 23.3418 60.5823 23.4444V23.4941C60.9179 23.4537 61.1199 23.6029 61.2318 23.9043C61.2536 23.9603 61.3592 24.01 61.4307 24.0162C61.6886 24.0317 61.9466 24.0162 62.2045 24.0317C62.3133 24.0411 62.4345 24.0846 62.5153 24.1529C62.7608 24.3611 62.9721 24.616 63.23 24.8055C63.6371 25.107 63.8018 25.4737 63.7459 25.9833C63.6993 26.3935 63.7366 26.8131 63.7366 27.2357H64.7403V26.319C65.1505 26.3562 65.539 26.3904 65.9244 26.437C65.9741 26.4433 66.0518 26.5303 66.0549 26.5862C66.058 26.6328 66.0642 26.7261 66.0642 26.7261L66.1699 30.3496C66.1699 30.3496 66.1699 30.3589 66.1699 30.3651C66.173 30.4148 66.1885 30.4739 66.2134 30.5578C66.232 30.6199 66.2258 30.6945 66.2569 30.7504C66.2911 30.8095 66.347 30.8779 66.406 30.8903C66.6578 30.9493 66.9095 30.9897 67.1643 31.0364C67.5745 31.1078 67.9847 31.1762 68.3918 31.2477C68.8642 31.3316 69.3365 31.4186 69.8089 31.5056V31.5553C66.7696 31.4901 63.7366 31.4248 60.6818 31.3627C60.6818 31.2819 60.6818 31.2166 60.6818 31.1513C60.6818 30.5889 60.6818 30.0233 60.6911 29.4608C60.6911 29.3489 60.7439 29.237 60.7719 29.1252C60.7999 29.0164 60.834 28.9107 60.8651 28.802C60.7781 28.9387 60.7097 29.0661 60.6383 29.1966C60.6165 29.2339 60.5792 29.2712 60.573 29.3116C60.5264 29.6628 60.4767 30.0139 60.4425 30.3651C60.43 30.5049 60.3865 30.536 60.256 30.4894C60.1317 30.4459 60.0012 30.4241 59.8738 30.3869C59.2025 30.2004 58.5313 30.0077 57.8569 29.8306C57.7202 29.7933 57.5493 29.7746 57.4219 29.8244C57.3255 29.8617 57.2261 29.9021 57.1297 29.9425L49.8672 33.1775H75.21C75.2193 33.1495 75.2286 33.1371 75.2286 33.1247C75.2286 32.2173 75.2348 31.3098 75.2286 30.4024L75.2255 30.4086ZM62.593 5.5475V6.22186C62.3444 6.10688 62.1144 6.00433 61.844 5.88002C62.1082 5.76193 62.335 5.66249 62.593 5.5475ZM61.7694 5.94839C62.0212 6.05716 62.2542 6.15971 62.5401 6.28712C62.2604 6.41143 62.0336 6.51087 61.7694 6.62896V5.9515V5.94839ZM62.593 7.01431C62.3537 6.91176 62.1361 6.81853 61.8596 6.69733C62.1299 6.57303 62.3506 6.47358 62.593 6.36481V7.01431ZM64.1468 3.3908C64.3488 3.3908 64.5477 3.3908 64.7434 3.3908C64.989 3.3908 65.2345 3.39702 65.48 3.3908C65.6105 3.3877 65.6509 3.43431 65.6509 3.56483C65.6447 4.04962 65.6509 4.53131 65.6447 5.0161C65.6447 5.07514 65.5732 5.1777 65.5359 5.1808C65.0822 5.19323 64.6254 5.18702 64.153 5.18702V3.39391L64.1468 3.3908ZM63.4289 3.60834C63.5812 3.5524 63.7335 3.49957 63.9168 3.4312C63.9168 3.68292 63.9168 3.90046 63.9168 4.11488C63.9168 4.43186 63.9168 4.74884 63.9168 5.06582C63.9168 5.18391 63.8951 5.24917 63.7552 5.25539C63.6527 5.25849 63.5532 5.29889 63.4258 5.32997V3.60523L63.4289 3.60834ZM62.9348 7.10443V6.33374H63.199C63.1182 6.28712 63.0405 6.24051 62.9348 6.18146V5.47603C63.2953 5.5444 63.6433 5.60966 63.9945 5.67492V5.71221H63.2083L63.199 5.78679C63.5843 5.88624 63.9976 5.83962 64.383 5.9515C63.9914 5.97325 63.5998 5.99811 63.2083 6.01987V6.0727C63.7987 6.12553 64.3892 6.17525 64.9796 6.22808V6.2778C64.3861 6.29334 63.7894 6.31198 63.1927 6.32752C63.2735 6.36481 63.3512 6.42697 63.432 6.43318C64.1064 6.4829 64.7776 6.5233 65.452 6.56681C65.4675 6.56681 65.4831 6.57613 65.5017 6.62896C64.7341 6.65693 63.9634 6.68801 63.1958 6.71598V6.78745L65.769 6.94594V6.99877C64.8336 7.03296 63.892 7.07025 62.9348 7.10443ZM66.0487 4.41322C66.0424 4.57792 66.0549 4.71155 66.2196 4.81721C66.2786 4.8545 66.3066 5.06893 66.2724 5.09068C66.1885 5.14973 66.0611 5.15905 65.9492 5.15594C65.9181 5.15594 65.8653 5.04096 65.8622 4.9757C65.856 4.53131 65.8591 4.09002 65.8591 3.64563C65.8591 3.46539 65.9513 3.37941 66.1357 3.3877C66.1792 3.3877 66.2258 3.40013 66.3283 3.41566C66.2631 3.50889 66.2289 3.5928 66.1667 3.6332C66.0673 3.69535 66.0424 3.76683 66.0487 3.8756C66.0549 4.05273 66.058 4.23297 66.0487 4.41011V4.41322ZM67.3414 5.15283C67.0804 5.15283 66.838 5.15283 66.5956 5.14973C66.5645 5.14973 66.5055 5.0969 66.5055 5.07204C66.5117 4.97881 66.5086 4.83896 66.5645 4.80167C66.7075 4.70533 66.7137 4.58414 66.7106 4.44119C66.7075 4.29513 66.7106 4.14907 66.7106 4.00612C66.7106 3.85073 66.7479 3.68603 66.5521 3.59902C66.521 3.58659 66.5086 3.49646 66.5117 3.44363C66.5117 3.42188 66.5832 3.39391 66.6205 3.3908C66.8131 3.38459 67.0058 3.38148 67.1954 3.3908C67.2451 3.39391 67.3321 3.46539 67.3321 3.50579C67.3414 4.0403 67.3383 4.57481 67.3383 5.14973L67.3414 5.15283ZM67.5465 4.75195C67.5465 4.39457 67.5465 4.03719 67.5465 3.67981C67.5465 3.60834 67.5528 3.53686 67.5559 3.46849C67.9163 3.48093 68.022 3.58348 68.022 3.89735C68.022 4.30134 68.022 4.70223 68.022 5.11554C67.705 5.16319 67.5465 5.04096 67.5465 4.74884V4.75195ZM64.1095 26.3158C64.0784 26.3158 64.0287 26.2475 64.0287 26.2071C64.0194 26.0237 64.0256 25.8404 64.0256 25.6042C64.268 25.8559 64.4793 26.0735 64.7155 26.319C64.4979 26.319 64.3053 26.3252 64.1095 26.3127V26.3158ZM68.2427 5.24917H68.5658V5.9515C68.3504 5.99708 68.2427 5.91628 68.2427 5.7091C68.2427 5.55994 68.2427 5.41077 68.2427 5.24917ZM68.5658 6.74395C68.5658 6.78124 68.454 6.83717 68.3918 6.83717C68.3421 6.83717 68.252 6.77502 68.2489 6.73462C68.2333 6.52641 68.2427 6.31509 68.2427 6.08823H68.5721C68.5721 6.31198 68.5814 6.52952 68.5627 6.74705L68.5658 6.74395ZM69.7126 5.68113V6.36481C69.4515 6.25294 69.2184 6.1566 68.9854 6.05716L68.9761 5.98879C69.2122 5.88934 69.4484 5.7899 69.7126 5.68113ZM68.9201 5.24917C69.1594 5.35483 69.3894 5.45738 69.6784 5.5848C69.3956 5.70599 69.1718 5.80544 68.9201 5.91421V5.24917ZM68.9139 6.12553C69.1594 6.23429 69.3832 6.33374 69.6597 6.45494C69.38 6.57613 69.1532 6.67247 68.9139 6.77813V6.12553ZM68.9729 6.85893C69.2091 6.75327 69.4484 6.64761 69.7281 6.5233C69.7281 6.70976 69.7343 6.85271 69.7219 6.99256C69.7219 7.02052 69.6318 7.07025 69.5945 7.06403C69.3925 7.02053 69.1905 6.96148 68.9885 6.90865L68.9729 6.85893Z" fill="white"/>
    <path d="M169.188 0.217896L67.1239 4.43185L169.188 8.6427V0.217896Z" fill="white"/>
    <path d="M0.101501 47.8145V39.5793H5.85374V41.1673H1.86664V47.8145H0.101501Z" fill="white"/>
    <path d="M12.3363 47.8145V43.5664C12.3363 43.1903 12.3487 42.777 12.3705 42.4383L8.53564 47.8145H6.87616V39.5793H8.6413V43.8274C8.6413 44.2034 8.62887 44.6167 8.60711 44.9555L12.4419 39.5793H14.1014V47.8145H12.3363Z" fill="white"/>
    <path d="M15.8665 47.8145V39.5793H23.0296V47.8145H21.2769V41.1673H17.6285V47.8145H15.8634H15.8665Z" fill="white"/>
    <path d="M30.5937 39.5793V41.1331H26.5599V42.8858H30.2425V44.4272H26.5599V46.2638H30.6651V47.8176H24.7948V39.5824H30.5937V39.5793Z" fill="white"/>
    <path d="M35.1587 39.5793C37.1476 39.5793 38.7108 40.2132 38.7108 42.345C38.7108 44.4769 37.1476 45.1108 35.1587 45.1108H33.8162V47.8176H32.0511V39.5824H35.1556L35.1587 39.5793ZM35.2426 41.1331H33.8193V43.557H35.2426C36.1501 43.557 36.9145 43.3115 36.9145 42.345C36.9145 41.3786 36.1501 41.1331 35.2426 41.1331Z" fill="white"/>
    <path d="M48.8044 39.5792V47.8145H47.0392V42.7428L44.8639 46.0493H43.8415L41.6661 42.7304V47.8114H39.901V39.5761H41.5356L44.3605 43.8585L47.1729 39.5761H48.8075L48.8044 39.5792Z" fill="white"/>
    <path d="M49.7242 47.8145L53.0898 39.5793H54.9948L58.3479 47.8145H56.5238L55.924 46.2731H52.1606L51.5484 47.8145H49.7242ZM52.7138 44.8156H55.3739L54.221 41.8634C54.162 41.6987 54.1029 41.534 54.0439 41.217C53.9848 41.534 53.9258 41.6987 53.8543 41.8634L52.7138 44.8156Z" fill="white"/>
    <path d="M62.3692 39.5793C64.3581 39.5793 65.9213 40.2132 65.9213 42.345C65.9213 44.4769 64.3581 45.1108 62.3692 45.1108H61.0267V47.8176H59.2616V39.5824H62.3661L62.3692 39.5793ZM62.4531 41.1331H61.0298V43.557H62.4531C63.3606 43.557 64.1251 43.3115 64.1251 42.345C64.1251 41.3786 63.3606 41.1331 62.4531 41.1331Z" fill="white"/>
    <path d="M67.1115 47.8145V39.5793H68.8766V42.8485H70.2067L72.2888 39.5793H74.2529L71.5834 43.5912L74.4082 47.8145H72.4566L70.2098 44.4489H68.8798V47.8145H67.1146H67.1115Z" fill="white"/>
    <path d="M81.0399 39.5793V41.1331H77.0062V42.8858H80.6888V44.4272H77.0062V46.2638H81.1114V47.8176H75.2411V39.5824H81.0399V39.5793Z" fill="white"/>
    <path d="M88.5821 39.5793V41.1673H86.0525V47.8145H84.2998V41.1673H81.7702V39.5793H88.5821Z" fill="white"/>
    <path d="M99.4496 39.5793V47.8145H97.6844V44.4955H93.9894V47.8145H92.2243V39.5793H93.9894V42.8982H97.6844V39.5793H99.4496Z" fill="white"/>
    <path d="M106.675 47.8145V43.5664C106.675 43.1903 106.687 42.777 106.709 42.4383L102.874 47.8145H101.215V39.5793H102.98V43.8274C102.98 44.2034 102.967 44.6167 102.946 44.9555L106.781 39.5793H108.44V47.8145H106.675Z" fill="white"/>
    <path d="M112.828 47.9792C111.852 47.9792 110.876 47.8393 109.782 47.4509V45.7572C110.864 46.2855 111.83 46.4036 112.701 46.3912C113.596 46.3912 114.453 46.1674 114.453 45.3222C114.453 44.5577 113.77 44.3588 112.971 44.3588H111.113L111.125 42.805H112.853C113.63 42.805 114.136 42.5222 114.136 41.9473C114.136 41.2884 113.549 41.0056 112.502 41.0056C111.762 40.9932 110.926 41.1579 109.925 41.6396V39.9584C110.879 39.5575 111.796 39.4176 112.654 39.4176C114.584 39.4176 115.901 40.1479 115.901 41.6645C115.901 42.5719 115.382 43.1934 114.584 43.4638C115.441 43.7 116.231 44.3464 116.231 45.5801C116.231 47.4167 114.466 47.9792 112.831 47.9792H112.828Z" fill="white"/>
    <path d="M117.545 47.8145V39.5793H119.31V42.8485H120.641L122.723 39.5793H124.687L122.017 43.5912L124.842 47.8145H122.89L120.644 44.4489H119.314V47.8145H117.548H117.545Z" fill="white"/>
    <path d="M131.132 47.8145V43.5664C131.132 43.1903 131.144 42.777 131.166 42.4383L127.331 47.8145H125.672V39.5793H127.437V43.8274C127.437 44.2034 127.425 44.6167 127.403 44.9555L131.238 39.5793H132.897V47.8145H131.132Z" fill="white"/>
    <path d="M133.708 47.8145L136.66 43.5446L133.885 39.5793H135.946L137.77 42.286L139.582 39.5793H141.651L138.876 43.5446L141.828 47.8145H139.759L137.77 44.8156L135.768 47.8145H133.711H133.708Z" fill="white"/>
    <path d="M151.919 49.6045V47.8176H145.25V39.5824H147.015V46.2296H150.663V39.5824H152.429V46.2296H153.476V49.6045H151.922H151.919Z" fill="white"/>
    <path d="M160.508 39.5793V41.1331H156.475V42.8858H160.157V44.4272H156.475V46.2638H160.58V47.8176H154.71V39.5824H160.508V39.5793Z" fill="white"/>
    <path d="M169.188 39.5793V47.8145H167.423V44.4955H163.728V47.8145H161.963V39.5793H163.728V42.8982H167.423V39.5793H169.188Z" fill="white"/>
    <path d="M34.5186 22.8539L40.8923 12.5459H35.3048L30.4662 20.7376H27.5699V12.5459H22.1657V33.1589H27.5699V25.0914H30.4817L35.3048 33.1589H41.1223L34.5186 22.8539Z" fill="white"/>
    <path d="M0.101501 17.9501H5.93143V33.1589H11.3356V17.9501H17.1655V12.5459H0.101501V17.9501Z" fill="white"/>
</svg>
