<svg xmlns="http://www.w3.org/2000/svg" display="none">

    <symbol id="arrow-left" viewBox="0 0 9 14">
        <path d="M5.58579 1.41421C6.84572 0.15428 9 1.04662 9 2.82843L9 11.1716C9 12.9534 6.84572 13.8457 5.58579 12.5858L1.41422 8.41421C0.633167 7.63316 0.633169 6.36684 1.41422 5.58579L5.58579 1.41421Z"/>
    </symbol>

    <symbol id="arrow-right" viewBox="0 0 9 14">
        <path d="M3.41421 1.41421C2.15428 0.15428 -4.76837e-06 1.04662 -4.76837e-06 2.82843L-3.8147e-06 11.1716C-3.8147e-06 12.9534 2.15428 13.8457 3.41421 12.5858L7.58578 8.41421C8.36683 7.63316 8.36683 6.36684 7.58578 5.58579L3.41421 1.41421Z"/>
    </symbol>

    <symbol id="arrow-bottom" viewBox="0 0 14 9">
        <path d="M1.41421 3.82839C0.154282 2.56847 1.04662 0.414185 2.82843 0.414185H11.1716C12.9534 0.414185 13.8457 2.56847 12.5858 3.8284L8.41421 7.99997C7.63317 8.78102 6.36684 8.78102 5.58579 7.99997L1.41421 3.82839Z"/>
    </symbol>

    <symbol id="tab-icon1" viewBox="0 0 20 21">
        <path d="M16.6667 0H3.33333C2.44928 0 1.60143 0.331874 0.976311 0.922614C0.35119 1.51335 0 2.31457 0 3.15V15.75C0.00193279 16.3999 0.216532 17.0333 0.614376 17.5634C1.01222 18.0935 1.57383 18.4944 2.22222 18.711V19.95C2.22222 20.2285 2.33929 20.4955 2.54766 20.6925C2.75603 20.8894 3.03865 21 3.33333 21C3.62802 21 3.91063 20.8894 4.11901 20.6925C4.32738 20.4955 4.44444 20.2285 4.44444 19.95V18.9H15.5556V19.95C15.5556 20.2285 15.6726 20.4955 15.881 20.6925C16.0894 20.8894 16.372 21 16.6667 21C16.9614 21 17.244 20.8894 17.4523 20.6925C17.6607 20.4955 17.7778 20.2285 17.7778 19.95V18.711C18.4262 18.4944 18.9878 18.0935 19.3856 17.5634C19.7835 17.0333 19.9981 16.3999 20 15.75V3.15C20 2.31457 19.6488 1.51335 19.0237 0.922614C18.3986 0.331874 17.5507 0 16.6667 0ZM2.22222 6.3H8.88889V10.5H2.22222V6.3ZM17.7778 15.75C17.7778 16.0285 17.6607 16.2955 17.4523 16.4925C17.244 16.6894 16.9614 16.8 16.6667 16.8H3.33333C3.03865 16.8 2.75603 16.6894 2.54766 16.4925C2.33929 16.2955 2.22222 16.0285 2.22222 15.75V12.6H17.7778V15.75ZM17.7778 10.5H11.1111V6.3H17.7778V10.5ZM17.7778 4.2H2.22222V3.15C2.22222 2.87152 2.33929 2.60445 2.54766 2.40754C2.75603 2.21062 3.03865 2.1 3.33333 2.1H16.6667C16.9614 2.1 17.244 2.21062 17.4523 2.40754C17.6607 2.60445 17.7778 2.87152 17.7778 3.15V4.2ZM14.0222 15.666C14.1558 15.7198 14.2992 15.7483 14.4444 15.75C14.7391 15.75 15.0217 15.6394 15.2301 15.4425C15.4385 15.2455 15.5556 14.9785 15.5556 14.7C15.561 14.6301 15.561 14.5599 15.5556 14.49C15.5434 14.4242 15.5209 14.3605 15.4889 14.301C15.4646 14.2341 15.4309 14.1705 15.3889 14.112C15.3479 14.057 15.3033 14.0044 15.2556 13.9545L15.0889 13.8285C15.027 13.7888 14.9597 13.757 14.8889 13.734C14.8204 13.6943 14.7452 13.6659 14.6667 13.65C14.4865 13.6144 14.2997 13.6217 14.1232 13.6712C13.9468 13.7206 13.786 13.8108 13.6556 13.9335C13.6078 13.9834 13.5632 14.036 13.5222 14.091C13.4802 14.1495 13.4465 14.2131 13.4222 14.28C13.3902 14.3395 13.3677 14.4032 13.3556 14.469C13.3501 14.5389 13.3501 14.6091 13.3556 14.679C13.3568 14.9545 13.4725 15.2184 13.6778 15.414C13.7739 15.5187 13.8909 15.6043 14.0222 15.666ZM5.13333 15.666C5.26691 15.7198 5.41036 15.7483 5.55556 15.75C5.85024 15.75 6.13286 15.6394 6.34123 15.4425C6.5496 15.2455 6.66667 14.9785 6.66667 14.7C6.67212 14.6301 6.67212 14.5599 6.66667 14.49C6.65451 14.4242 6.63204 14.3605 6.6 14.301C6.57568 14.2341 6.54205 14.1705 6.5 14.112C6.45898 14.057 6.41445 14.0044 6.36667 13.9545L6.2 13.8285L6 13.734L5.77778 13.65C5.59758 13.6144 5.41085 13.6217 5.23436 13.6712C5.05787 13.7206 4.89716 13.8108 4.76667 13.9335C4.71888 13.9834 4.67436 14.036 4.63333 14.091C4.59128 14.1495 4.55765 14.2131 4.53333 14.28C4.5013 14.3395 4.47883 14.4032 4.46667 14.469C4.46121 14.5389 4.46121 14.6091 4.46667 14.679C4.46789 14.9545 4.58362 15.2184 4.78889 15.414C4.88498 15.5187 5.00205 15.6043 5.13333 15.666Z"/>
    </symbol>

    <symbol id="tab-icon2" viewBox="0 0 20 15">
        <path d="M17 5.00001H16.68L15.43 1.88001C15.2068 1.32527 14.8228 0.849897 14.3275 0.514916C13.8321 0.179935 13.248 0.000628704 12.65 1.22977e-05H6.65C5.95529 -0.00197604 5.28142 0.237203 4.74342 0.676725C4.20541 1.11625 3.83662 1.72886 3.7 2.41001L3.18 5.00001H3C2.20435 5.00001 1.44129 5.31608 0.87868 5.87869C0.316071 6.4413 0 7.20436 0 8.00001V11C0 11.2652 0.105357 11.5196 0.292893 11.7071C0.48043 11.8946 0.734784 12 1 12H2C2 12.7957 2.31607 13.5587 2.87868 14.1213C3.44129 14.6839 4.20435 15 5 15C5.79565 15 6.55871 14.6839 7.12132 14.1213C7.68393 13.5587 8 12.7957 8 12H12C12 12.7957 12.3161 13.5587 12.8787 14.1213C13.4413 14.6839 14.2044 15 15 15C15.7956 15 16.5587 14.6839 17.1213 14.1213C17.6839 13.5587 18 12.7957 18 12H19C19.2652 12 19.5196 11.8946 19.7071 11.7071C19.8946 11.5196 20 11.2652 20 11V8.00001C20 7.20436 19.6839 6.4413 19.1213 5.87869C18.5587 5.31608 17.7956 5.00001 17 5.00001ZM11 2.00001H12.65C12.8486 2.00181 13.0421 2.06268 13.206 2.17488C13.3698 2.28708 13.4965 2.44552 13.57 2.63001L14.52 5.00001H11V2.00001ZM5.66 2.80001C5.70675 2.57073 5.83242 2.36511 6.01514 2.21894C6.19786 2.07276 6.42605 1.99529 6.66 2.00001H9V5.00001H5.22L5.66 2.80001ZM5 13C4.80222 13 4.60888 12.9414 4.44443 12.8315C4.27998 12.7216 4.15181 12.5654 4.07612 12.3827C4.00043 12.2 3.98063 11.9989 4.01921 11.8049C4.0578 11.6109 4.15304 11.4327 4.29289 11.2929C4.43275 11.153 4.61093 11.0578 4.80491 11.0192C4.99889 10.9806 5.19996 11.0004 5.38268 11.0761C5.56541 11.1518 5.72159 11.28 5.83147 11.4444C5.94135 11.6089 6 11.8022 6 12C6 12.2652 5.89464 12.5196 5.70711 12.7071C5.51957 12.8946 5.26522 13 5 13ZM15 13C14.8022 13 14.6089 12.9414 14.4444 12.8315C14.28 12.7216 14.1518 12.5654 14.0761 12.3827C14.0004 12.2 13.9806 11.9989 14.0192 11.8049C14.0578 11.6109 14.153 11.4327 14.2929 11.2929C14.4327 11.153 14.6109 11.0578 14.8049 11.0192C14.9989 10.9806 15.2 11.0004 15.3827 11.0761C15.5654 11.1518 15.7216 11.28 15.8315 11.4444C15.9414 11.6089 16 11.8022 16 12C16 12.2652 15.8946 12.5196 15.7071 12.7071C15.5196 12.8946 15.2652 13 15 13ZM18 10H17.22C16.9388 9.69065 16.5961 9.44348 16.2138 9.27434C15.8315 9.1052 15.418 9.01783 15 9.01783C14.582 9.01783 14.1685 9.1052 13.7862 9.27434C13.4039 9.44348 13.0612 9.69065 12.78 10H7.22C6.93882 9.69065 6.59609 9.44348 6.21378 9.27434C5.83148 9.1052 5.41805 9.01783 5 9.01783C4.58195 9.01783 4.16852 9.1052 3.78622 9.27434C3.40391 9.44348 3.06118 9.69065 2.78 10H2V8.00001C2 7.73479 2.10536 7.48044 2.29289 7.2929C2.48043 7.10536 2.73478 7.00001 3 7.00001H17C17.2652 7.00001 17.5196 7.10536 17.7071 7.2929C17.8946 7.48044 18 7.73479 18 8.00001V10Z"/>
    </symbol>

    <symbol id="tab-icon3" viewBox="0 0 20 23">
        <path d="M5.5 3.14006C5.63161 3.14085 5.76207 3.11449 5.88391 3.06247C6.00574 3.01045 6.11656 2.93381 6.21 2.83693L7.21 1.79167C7.3983 1.59485 7.50409 1.32789 7.50409 1.04954C7.50409 0.771182 7.3983 0.504229 7.21 0.307402C7.0217 0.110576 6.7663 2.0739e-09 6.5 0C6.2337 -2.0739e-09 5.9783 0.110576 5.79 0.307402L4.79 1.35266C4.69627 1.44983 4.62188 1.56544 4.57111 1.69281C4.52034 1.82019 4.4942 1.95681 4.4942 2.0948C4.4942 2.23278 4.52034 2.36941 4.57111 2.49678C4.62188 2.62415 4.69627 2.73976 4.79 2.83693C4.88344 2.93381 4.99426 3.01045 5.11609 3.06247C5.23793 3.11449 5.36839 3.14085 5.5 3.14006ZM9.5 3.14006C9.63161 3.14085 9.76207 3.11449 9.88391 3.06247C10.0057 3.01045 10.1166 2.93381 10.21 2.83693L11.21 1.79167C11.3983 1.59485 11.5041 1.32789 11.5041 1.04954C11.5041 0.771182 11.3983 0.504229 11.21 0.307402C11.0217 0.110576 10.7663 0 10.5 0C10.2337 0 9.9783 0.110576 9.79 0.307402L8.79 1.35266C8.69627 1.44983 8.62188 1.56544 8.57111 1.69281C8.52034 1.82019 8.4942 1.95681 8.4942 2.0948C8.4942 2.23278 8.52034 2.36941 8.57111 2.49678C8.62188 2.62415 8.69627 2.73976 8.79 2.83693C8.88344 2.93381 8.99426 3.01045 9.11609 3.06247C9.23793 3.11449 9.36839 3.14085 9.5 3.14006ZM13.5 3.14006C13.6316 3.14085 13.7621 3.11449 13.8839 3.06247C14.0057 3.01045 14.1166 2.93381 14.21 2.83693L15.21 1.79167C15.3032 1.69421 15.3772 1.57851 15.4277 1.45118C15.4781 1.32384 15.5041 1.18736 15.5041 1.04954C15.5041 0.91171 15.4781 0.775232 15.4277 0.647897C15.3772 0.520561 15.3032 0.404861 15.21 0.307402C15.1168 0.209944 15.0061 0.132635 14.8842 0.0798912C14.7624 0.027147 14.6319 0 14.5 0C14.3681 0 14.2376 0.027147 14.1158 0.0798912C13.9939 0.132635 13.8832 0.209944 13.79 0.307402L12.79 1.35266C12.6963 1.44983 12.6219 1.56544 12.5711 1.69281C12.5203 1.82019 12.4942 1.95681 12.4942 2.0948C12.4942 2.23278 12.5203 2.36941 12.5711 2.49678C12.6219 2.62415 12.6963 2.73976 12.79 2.83693C12.8834 2.93381 12.9943 3.01045 13.1161 3.06247C13.2379 3.11449 13.3684 3.14085 13.5 3.14006ZM15.92 15.286C15.8981 15.2194 15.8678 15.1561 15.83 15.0978L15.71 14.941L15.56 14.8156C15.5043 14.7761 15.4437 14.7444 15.38 14.7215C15.3205 14.6897 15.2562 14.6685 15.19 14.6588C15.0293 14.6252 14.8632 14.6334 14.7063 14.6826C14.5494 14.7318 14.4064 14.8205 14.29 14.941C14.247 14.9907 14.2069 15.0431 14.17 15.0978C14.1322 15.1561 14.1019 15.2194 14.08 15.286C14.0512 15.3452 14.0309 15.4086 14.02 15.4741C14.0151 15.5437 14.0151 15.6136 14.02 15.6832C14.0211 15.9574 14.1253 16.2202 14.31 16.4149C14.4025 16.5159 14.5152 16.5945 14.64 16.6448C14.754 16.6958 14.8761 16.7241 15 16.7284C15.2652 16.7284 15.5196 16.6183 15.7071 16.4223C15.8946 16.2263 16 15.9604 16 15.6832C16.0049 15.6136 16.0049 15.5437 16 15.4741C15.9828 15.4075 15.9558 15.344 15.92 15.286ZM17.76 10.5719L16.4 6.3281C16.1926 5.71477 15.8077 5.18407 15.2989 4.80951C14.7901 4.43495 14.1824 4.23507 13.56 4.23758H6.44C5.81764 4.23507 5.20995 4.43495 4.7011 4.80951C4.19225 5.18407 3.80745 5.71477 3.6 6.3281L2.24 10.5719C1.60033 10.7469 1.03392 11.138 0.628829 11.6843C0.223743 12.2306 0.00267662 12.9015 0 13.5927V17.7737C0.00173951 18.4207 0.194879 19.0512 0.552938 19.5789C0.910998 20.1066 1.41645 20.5057 2 20.7213V21.9547C2 22.232 2.10536 22.4978 2.29289 22.6939C2.48043 22.8899 2.73478 23 3 23C3.26522 23 3.51957 22.8899 3.70711 22.6939C3.89464 22.4978 4 22.232 4 21.9547V20.9095H16V21.9547C16 22.232 16.1054 22.4978 16.2929 22.6939C16.4804 22.8899 16.7348 23 17 23C17.2652 23 17.5196 22.8899 17.7071 22.6939C17.8946 22.4978 18 22.232 18 21.9547V20.7213C18.5835 20.5057 19.089 20.1066 19.4471 19.5789C19.8051 19.0512 19.9983 18.4207 20 17.7737V13.5927C19.9973 12.9015 19.7763 12.2306 19.3712 11.6843C18.9661 11.138 18.3997 10.7469 17.76 10.5719ZM5.49 6.98661C5.55709 6.779 5.6849 6.59868 5.85537 6.47114C6.02584 6.34359 6.23036 6.27527 6.44 6.27584H13.56C13.7781 6.26394 13.9939 6.32698 14.1744 6.45532C14.355 6.58367 14.4904 6.77027 14.56 6.98661L15.61 10.4569H4.39L5.49 6.98661ZM18 17.7737C18 18.0509 17.8946 18.3168 17.7071 18.5128C17.5196 18.7088 17.2652 18.819 17 18.819H3C2.73478 18.819 2.48043 18.7088 2.29289 18.5128C2.10536 18.3168 2 18.0509 2 17.7737V13.5927C2 13.3154 2.10536 13.0496 2.29289 12.8535C2.48043 12.6575 2.73478 12.5474 3 12.5474H17C17.2652 12.5474 17.5196 12.6575 17.7071 12.8535C17.8946 13.0496 18 13.3154 18 13.5927V17.7737ZM11 14.6379H9C8.73478 14.6379 8.48043 14.748 8.29289 14.9441C8.10536 15.1401 8 15.406 8 15.6832C8 15.9604 8.10536 16.2263 8.29289 16.4223C8.48043 16.6183 8.73478 16.7284 9 16.7284H11C11.2652 16.7284 11.5196 16.6183 11.7071 16.4223C11.8946 16.2263 12 15.9604 12 15.6832C12 15.406 11.8946 15.1401 11.7071 14.9441C11.5196 14.748 11.2652 14.6379 11 14.6379ZM5.92 15.286C5.89811 15.2194 5.86785 15.1561 5.83 15.0978L5.71 14.941C5.56938 14.796 5.3908 14.6978 5.19681 14.6587C5.00282 14.6196 4.80211 14.6415 4.62 14.7215C4.49725 14.7713 4.3851 14.8459 4.29 14.941C4.24699 14.9907 4.20692 15.0431 4.17 15.0978C4.13215 15.1561 4.10189 15.2194 4.08 15.286C4.0442 15.344 4.01722 15.4075 4 15.4741C3.99509 15.5437 3.99509 15.6136 4 15.6832C4.00083 15.8899 4.06028 16.0917 4.17085 16.2631C4.28141 16.4345 4.43812 16.5678 4.62115 16.6461C4.80418 16.7245 5.00532 16.7443 5.19913 16.7031C5.39295 16.662 5.57073 16.5616 5.71 16.4149C5.89474 16.2202 5.9989 15.9574 6 15.6832C6.00491 15.6136 6.00491 15.5437 6 15.4741C5.98278 15.4075 5.9558 15.344 5.92 15.286Z"/>
    </symbol>

    <symbol id="vk" viewBox="0 0 32 18">
        <path d="M31.7148 16.0549C31.6288 15.9129 31.0967 14.7732 28.5365 12.4306C25.8563 9.97766 26.2164 10.376 29.4446 6.13455C31.4108 3.55145 32.1968 1.97398 31.9508 1.29961C31.7168 0.656789 30.2707 0.826367 30.2707 0.826367L25.4623 0.853973C25.4623 0.853973 25.1063 0.806649 24.8403 0.962424C24.5823 1.11623 24.4162 1.47116 24.4162 1.47116C24.4162 1.47116 23.6542 3.4706 22.6381 5.17032C20.496 8.7571 19.6379 8.94639 19.2879 8.72358C18.4738 8.20498 18.6778 6.63737 18.6778 5.52526C18.6778 2.04891 19.2119 0.599606 17.6357 0.224956C17.1117 0.100731 16.7277 0.0179136 15.3896 0.00411071C13.6734 -0.0136358 12.2193 0.0100262 11.3973 0.406366C10.8492 0.670592 10.4272 1.26017 10.6852 1.29369C11.0033 1.3351 11.7233 1.48496 12.1053 1.99764C12.5994 2.6582 12.5814 4.14497 12.5814 4.14497C12.5814 4.14497 12.8654 8.23653 11.9193 8.74527C11.2693 9.09428 10.3792 8.38245 8.46907 5.12694C7.491 3.46074 6.75094 1.61707 6.75094 1.61707C6.75094 1.61707 6.60893 1.27397 6.35491 1.09059C6.04689 0.867776 5.61486 0.79679 5.61486 0.79679L1.04252 0.824395C1.04252 0.824395 0.356473 0.844114 0.104454 1.13792C-0.119562 1.40017 0.0864528 1.94045 0.0864528 1.94045C0.0864528 1.94045 3.66672 10.1965 7.71901 14.3591C11.4373 18.1746 15.6576 17.9242 15.6576 17.9242H17.5697C17.5697 17.9242 18.1478 17.8611 18.4418 17.5475C18.7138 17.2597 18.7038 16.7194 18.7038 16.7194C18.7038 16.7194 18.6658 14.1895 19.8579 13.8168C21.032 13.4501 22.5401 16.2619 24.1382 17.3444C25.3463 18.1628 26.2644 17.9833 26.2644 17.9833L30.5387 17.9242C30.5387 17.9242 32.7748 17.7881 31.7148 16.0549Z"/>
    </symbol>

    <symbol id="location" viewBox="0 0 15 20">
        <path fill-rule="evenodd" clip-rule="evenodd"
              d="M7.12959 19.4443C7.12959 19.4443 14.2592 11.0672 14.2592 7.12959C14.2592 3.19203 11.0672 0 7.12959 0C3.19203 0 0 3.19203 0 7.12959C0 11.0672 7.12959 19.4443 7.12959 19.4443ZM7.12961 11.2347C9.39669 11.2347 11.2345 9.39682 11.2345 7.12974C11.2345 4.86266 9.39669 3.02482 7.12961 3.02482C4.86252 3.02482 3.02469 4.86266 3.02469 7.12974C3.02469 9.39682 4.86252 11.2347 7.12961 11.2347Z"/>
    </symbol>

</svg>